<svg id="Layer_1" data-name="Layer 1" xmlns="http://www.w3.org/2000/svg" viewBox="0 0 414.94 401.46"><defs><style>.cls-1{fill:#fff;}.cls-2{fill:#58a534;stroke:#ddb40a;stroke-miterlimit:10;stroke-width:9px;}.cls-3{fill:#005c05;}</style></defs><path d="M989.32,369.32c.26-1.3.51-2.6.72-3.71l3.91,7.74v-3.44l4.54,11.79c1.28-1.29.81-3.08,1.28-4.74l3.56,12.8c.59-.42.8-1.43.61-4.13-.11-1.55-.22-3.11-.19-4.68.11,1.44.23,2.87.34,4.3a12.76,12.76,0,0,0,1.38,5.77c.83,1.43,1.12,3.18,2,4.78V381.9h.66c0,2,.1,4.05,0,6.07a38,38,0,0,0,2.19,14.54,8.61,8.61,0,0,1,0,2.64c1.64-.27,2.06-1.71,2.2-7.59,0,5.95,2.73,11.33,1.43,17.18,1.53-.75,1.9-2.45,2.61-10.51-.12,2.46-.35,4.92-.33,7.37a24,24,0,0,0,.62,4.77c.51,2.45.93,4.86.17,7.33-.06.21,0,.46.31.85l1.63-2.87v9.05l.54.09a12.29,12.29,0,0,0,1.78-7.05c.47,4.6,1.08,10.51,1.68,16.39,1-.21,1.13-.36,1.55-5,.3,2.12.89,5.8,1.3,9.51a53,53,0,0,1,0,5.51l1.62-2.73c0,2.63.11,5.27,0,7.9-.16,3.18-1.85,5.62-4.14,7.71a1.78,1.78,0,0,0-.5,1.28,169.68,169.68,0,0,1-.75,27.79,11.16,11.16,0,0,0,1.26,5.67c1.47,3.47,2.92,6.94,4.39,10.41.59,1.37,1.2,2.73,1.91,4.35a5.27,5.27,0,0,0,.65-1c1.13-4,2.32-7.92,3.33-11.91,1.12-4.38,2.21-8.78,3-13.22,1-5.47,1.78-11,2.38-16.56,0,1.4,0,2.81,0,4.21s-.14,2.83-.32,4.22c-.41,3.2-.76,6.42-1.38,9.58-.8,4.1-1.72,8.18-2.82,12.2-1.18,4.37-2.63,8.65-3.91,13a9.34,9.34,0,0,0-.15,1.92l.47.07a29.87,29.87,0,0,0,1.19-3c1.52-5.42,3.08-10.83,4.44-16.29,1-3.89,1.58-7.87,2.49-11.77,1.8-7.79,1.14-15.75,1.79-23.61.4-4.77.52-9.57.92-14.34.2-2.35.77-4.67.87-7.08.23.89.47,1.77.68,2.66a1.37,1.37,0,0,0,1.7,1.23c1.76-.15,2.13-.48,1.92-2.24-.55-4.6-1-9.21-1.7-13.79-.39-2.63-1.08-5.21-1.62-7.81-.2-.93-.32-1.88-.54-2.81-.27-1.19-.39-2.35-1.53-3.29-1.41-1.17-1.5-5.14-.45-7,1.32,5.63,2.79,11.22,3.91,16.88.87,4.34,1.29,8.77,1.92,13.17,3.52,24.61,2.8,49.37,2.63,74.11-.09,12.8-.58,25.6-.89,38.4-.07,3-.16,6-.24,8.92a6.38,6.38,0,0,0,.17,1.89c1.24-3.71,2.58-7.37,2.62-11.35.09-11.3.27-22.59.37-33.88,0-6.15,0-12.3,0-18.44h.49l-.52,51.13.56.09c.61-2.33,1.29-4.65,1.82-7q1.92-8.54,3.71-17.09c1-4.57,1.89-9.15,2.68-13.75,1-6.05,1.88-12.12,2.83-18.18.18-1.13.52-2.24.65-3.38,0-.35-.34-1-.61-1.08-2.76-.55-4.4-2.76-6.45-4.31-2.33-1.76-3.24-4.52-4.54-7s-.55-4.85-.83-6.25c.59,1.76,1.5,4.44,2.39,7.14a12.71,12.71,0,0,0,5.1,6.95l1.09-4.83c0,5,.68,6.62,3.48,7.27l-1.38-1c2,.31,2.22-.92,2.33-2.3.18-2.1.4-4.21.57-6.32.13-1.61.07-3.15-1.81-4l1.69.19c1.28-2.28-.29-5.69,2.87-7-2.25,2.22-1.23,5.29-1.6,8-1,7.08-1.6,14.2-2.55,21.28-.72,5.33-1.72,10.63-2.58,15.94a1.35,1.35,0,0,0,.15.94c.23-1.07.45-2.13.69-3.2,1.23-5.49,2.51-11,3.67-16.49,1.31-6.24,2.55-12.5,3.76-18.77.3-1.53.39-3.1.57-4.62l.22,1.28.25,0a21.28,21.28,0,0,0,1.2-3.47c.44-2.72.67-5.47,1-8.2A6,6,0,0,1,1073,456c.54-1.17,1.52-2.23.73-3.68a.61.61,0,0,1,0-.56c1.53-1.95,1.71-4.22,1.62-6.57a8.27,8.27,0,0,1,.28-1.76l.37,0c-.1,1.4-.2,2.79-.32,4.19-.24,2.77-.24,2.77,2.44,3a7.34,7.34,0,0,0-1.55,1.07,7.87,7.87,0,0,0-1.92,2.73c-1.1,4.29-2,8.63-2.94,12.95q-1.5,6.78-3,13.56c-.83,3.78-1.68,7.55-2.52,11.33l-2.64,11.94q-1.26,5.75-2.51,11.49c-1,4.62-1.75,9.31-3,13.86a80.12,80.12,0,0,0-2.42,18.22c-.22,5.32-.64,10.66-.46,16,.31,8.85,1,17.69,1.58,26.53.18,2.87.4,5.74.74,8.59,1,8.24,2,16.48,3,24.72,0,.08-.09.16-.32.56a5.62,5.62,0,0,1-.53-1.32c-.52-4.05-1-8.1-1.47-12.16-.87-8.15-1.54-16.32-2.53-24.46-1.33-11-1.19-22.11-1.44-33.18-.11-4.9.7-9.7.59-14.59-.25,1.19-.47,2.38-.76,3.56-1.26,5.18-2.52,10.37-3.84,15.54-.8,3.16-1.64,6.32-2.55,9.46-1.72,6-3.48,11.87-5.25,17.8-.83,2.8-1.67,5.59-2.55,8.37-1.78,5.61-3.55,11.22-5.39,16.81-1.34,4.06-2.77,8.08-4.2,12.1-.24.66,0,1.93-1.18,1.69-.32-.06-.58-1.33-.58-2-.06-8.57.14-17.15-.13-25.72-.39-12.59-.9-25.18-1.74-37.74-.55-8.33-1.65-16.62-2.71-24.9-.63-4.89-1.56-9.74-2.56-14.56-.75-3.69-1.73-7.34-2.78-11-.8-2.75-1.87-5.41-2.55-8.41l2,1.87c0-.52.26-1,.1-1.34-2.45-5.34-4.89-10.68-7.47-16-1.32-2.7-2.91-5.26-4.38-7.89a4.17,4.17,0,0,1-.49-1.36c4.87,7.31,8.59,15.25,12.31,23.18l.7-.19a11,11,0,0,0-.4-3.07c-1-2.2-2.15-4.29-3.27-6.42-2.25-4.26-4.5-8.51-6.79-12.75-.55-1-1.35-1.88-1.88-2.9a3.34,3.34,0,0,1-.12-2.07c5.32,6.9,8.7,14.82,12.71,22.65.71-1.89,0-3.29-.7-4.66-1.18-2.33-2.32-4.68-3.61-6.94-2.34-4.1-4.79-8.13-7.18-12.19-.25-.42-.46-.84-.69-1.26l.31-.31a4.24,4.24,0,0,1,1,.84c1.08,1.63,2.2,3.26,3.13,5,2.63,4.81,5.17,9.65,7.75,14.48a10.79,10.79,0,0,0,.71.89,117.89,117.89,0,0,0,0-26.49c-2.81,1.74-5.29.71-7.6-.66a18.35,18.35,0,0,1-5.5-5.66c-1.44-2.07-3.23-3.91-4.82-5.8,2.27,1.16,3.76,4.33,7.33,3.66-2.56-3.5-4.77-6.93-7.41-10s-5.7-5.85-8.46-8.88l5.23,4.87c1.84,1.7,3.64,3.45,5.55,5.06a4,4,0,0,0,2.48.73l-11.37-14.39c2.73,1.83,4.48,5.75,9.16,5.37l-9.13-11.08c2.05,1.46,3.75,4.05,7,3.76-3.09-2.1-4.74-5.22-6.52-8.32a22.93,22.93,0,0,0-3.82-4.21c-2.5-2.53-5-5-7.38-7.72,2.18,2.08,4.23,4.31,6.56,6.2s3.75,4.66,7.19,5.05l-11.89-15c1.29,1.19,2.57,2.41,3.89,3.59s2.65,2.29,4.7,2.21c-1.08-1.2-2.08-2.27-3-3.38a6.45,6.45,0,0,1-1.2-1.69c-1.35-3.54-4.29-5.73-6.85-8.26q-3.24-3.21-6.34-6.57l12.31,11.21c-3.39-6.57-8.51-11.52-14.1-16.05l.31-.31,9.67,8.41.22-.2c-2.49-3.7-5-7.39-7.54-11.17l1.59,1.17c-.15-2.75-2.34-4-3.87-5.71-.17-.18-.46-.27-.56-.48-1.93-3.82-5.17-6.58-7.81-9.86l3.24,4,.83-.73-1.68-2.39c1.69.95,2.43,3.19,4.65,3.4-1.82-5.34-5-9.78-8.71-13.93,3,2.23,4.41,6.19,8.31,7.89,0-5.82-4.33-8.8-6.75-12.91.78,1,1.54,1.91,2.32,2.85s1.62,1.88,2.43,2.81l.47-.26L968.36,351l.38-.22c2.79,2.79,4,6.9,7.27,9.3l.61-.41q-4.3-8.91-8.59-17.81l.22-.24a7.36,7.36,0,0,1,1.3,1.45c1.08,2.21,2,4.49,3.1,6.7q2.51,5.13,5.14,10.19a20.87,20.87,0,0,0,2,2.64l-.32-2.21,2.3,3.59.55-.09c.06-.53.32-1.12.16-1.56-1.23-3.22-2.53-6.42-3.82-9.62-.39-1-.8-2-1.21-2.93-.86-2-1.73-4-2.59-6l.35-.15,8,18.18.4,0,.13-2.45c1.12,3.3,4.68,5.32,4.63,9.15,0,.27.65.55,1,.83a14.08,14.08,0,0,0-1.07,3.21c-.12,1.21,2.62,4.08,3.94,4.47,1-2.21-.17-6.4-2.21-7.69C989.87,369.17,989.56,369.3,989.32,369.32Zm54.85,75.32-.71-.06c-.09,1.86-.15,3.71-.27,5.56-.45,6.67-.93,13.35-1.4,20-.5,7.17-.7,14.38-2.87,21.34-.91,2.91-1.49,5.93-2.34,8.87-1.57,5.46-3.25,10.88-4.85,16.33a3.41,3.41,0,0,0,.12,1.21,48.49,48.49,0,0,0,2.8-7.09c1.31-4.28,2.5-8.6,3.72-12.91.28-1,.51-2.05.72-3.09,1.12-5.5,2.54-11,3.26-16.54s.7-10.95,1-16.44c.16-2.85.33-5.71.49-8.56a2.11,2.11,0,0,1,.56,1.52c-.19,4.43-.32,8.86-.63,13.29-.46,6.51-.25,13.08-2.07,19.46-1.07,3.71-1.74,7.53-2.75,11.26-1.25,4.66-2.66,9.27-4,13.9a11.73,11.73,0,0,1-.69,2.15c-1.5,3-2.28,6-.66,9.19a15.55,15.55,0,0,1,.92,1.88q1.9,5.49,3.74,11c.29.86.48,1.75.77,2.61,1.27,3.75,2.62,7.47,3.83,11.23,1.28,4,2.42,8,3.65,12a7.46,7.46,0,0,0,.88,1.3c.12-.89.21-1.27.23-1.66.47-17.58,1.17-35.17,1.35-52.75.16-15.77-.21-31.54-.43-47.31-.07-4.94-.41-9.87-.66-14.8-.05-1-.24-2-.36-3.06-1.86.1-2.61.77-2.54,2.54a24.28,24.28,0,0,1-.52,4.29h-.3Zm-23,56.31c-.2,1.12-.63,2-.42,2.62.71,2.15,1.63,4.22,2.48,6.32,2,5,4.15,9.92,6,14.94,1.63,4.33,3,8.76,4.47,13.14.09.29.24.55.34.84l3.06,8.87-.21.07-6.9-19.17c-.53.29-.67.49-.75.71-.89,2.29-1.61,4.66-2.69,6.86a5.44,5.44,0,0,0-.2,4.61,3,3,0,0,1,.15.73c.81,8.67,1.82,17.32,2.36,26,.57,9,.77,18.13,1,27.19.16,7.41.07,14.83.1,22.24,0,.57.06,1.13.09,1.7l.41.07c.51-1.27,1.09-2.51,1.53-3.81,1.79-5.33,3.59-10.65,5.29-16,1.41-4.46,2.69-9,4-13.43.21-.73.42-1.46.64-2.18,1.08-3.54,2.12-7.1,3.28-10.61.52-1.6-.4-2.81-.8-4.17-.9-3-1.75-6.08-2.67-9.1q-2.64-8.57-5.33-17.11c-.82-2.58-1.67-5.16-2.56-7.71q-2.8-8-5.69-16c-1.33-3.68-2.68-7.36-4.11-11C1023.22,505.43,1022.24,503.41,1021.15,501Zm.92-3.89-.5,0a11.8,11.8,0,0,0,.38,2.69c1.53,3.86,3.22,7.66,4.73,11.53,1.94,4.95,3.8,9.94,5.62,14.93q2.6,7.14,5,14.34c1.88,5.62,3.69,11.26,5.48,16.9,1.11,3.48,2.12,7,3.17,10.47l.59-.08a15,15,0,0,0-.26-3.24c-1.47-4.85-3-9.67-4.61-14.49-1.7-5.2-3.4-10.4-5.19-15.58s-3.65-10.32-5.56-15.45c-2.16-5.79-4.39-11.55-6.65-17.3C1023.65,500.19,1022.81,498.64,1022.07,497.06Zm2.7,30.76c.73-1.85,1.31-3.48,2-5.05a3.39,3.39,0,0,0-.27-3.29,12.54,12.54,0,0,1-.7-1.48c-1.45-3.64-2.87-7.28-4.33-10.91a13.35,13.35,0,0,0-1.18-1.83c-.27.84-.62,1.35-.53,1.76C1021.38,513.84,1023,520.64,1024.77,527.82Zm-5.66-23.06.41,0a152.11,152.11,0,0,0,1.86-48.58,2.3,2.3,0,0,0-1.28,2.75c.36,1.92.87,3.83,1,5.77a77.85,77.85,0,0,1,.52,9.64c-.16,5.06-.55,10.12-1,15.16-.44,4.51-1.19,9-1.75,13.48A6.85,6.85,0,0,0,1019.11,504.76ZM1015.57,440l-.91.43a12.3,12.3,0,0,0,.06,3.49,60.37,60.37,0,0,0,2.48,6.29c.67,1.57,1.89,1.81,3,.51a3.65,3.65,0,0,0,1-2.51,37.31,37.31,0,0,0-1.53-5.07l-.3.1.31,2.82-.58.13a19.51,19.51,0,0,0-1.21-3.26A23.7,23.7,0,0,0,1015.57,440Zm3.9,1.7c3.16-3.37,2.27-6.58.06-10.52-.6,1.88-2.86,2.47-2.71,4.72,0,.37-.65.79-1,1.18s-.86.65-.91,1a1.58,1.58,0,0,0,.6,1.26C1016.75,440.2,1018.07,440.91,1019.47,441.72Zm-12-28c.93.73,1.66,1.33,2.42,1.9s1.3.66,1.87-.26c1.43-2.31,1.23-7.22-.57-9.64C1008.82,408,1008.47,411,1007.43,413.72Zm-3.5-1.87c-1-3-.41-6.45-3.63-9l.22,2-1-1.36c-.41,2.54-.33,4.69,1.06,6.69C1001.38,411.37,1002.05,412.43,1003.93,411.85Zm-1-20.31c-1.58,1.37-2.35,3.24-1.66,4.49.85,1.55,1.91,3,2.88,4.47C1007,397.15,1005.6,395.5,1003,391.54Zm4.32,24.5a13.71,13.71,0,0,0,.27,1.58c.49,1.63,1,3.25,1.54,4.87.26.81.49,1.64.79,2.44s1,1,1.63.37a3,3,0,0,0,.93-1.5,8.11,8.11,0,0,0-1.42-5.55v2.4c-.71-.6-1.39-1.3-1.36-2C1009.74,417.05,1008.58,416.61,1007.29,416Zm3.89,25.69a3.26,3.26,0,0,1-3.29-2.18c-.19-.49-.95-.81-1.51-1.05-.12-.05-.76.61-.77.95-.07,2,2.41,5,4.43,5.34a2.21,2.21,0,0,0,1.53-.27c.71-.56.61-3.26-.13-4.25Zm-7.3-25.85a3.56,3.56,0,0,1-4.7-2.17c-.17-.43-1-.7-1.64-.82-.17,0-.81.93-.7,1.11a20.84,20.84,0,0,0,2.95,4.24c.71.69,2.06.72,3.12,1Zm-3.7-23.94c1.91-3.11,1.23-7.79-1.31-9.69C997.41,384,998.24,390.38,1000.18,391.94Zm6.78,7.92c-.8,1.23-1.58,2.38-2.28,3.56a1.17,1.17,0,0,0,0,1c.78,1.32,1.62,2.59,2.45,3.89C1009.45,406,1009.39,403.49,1007,399.86Zm-.37,28.36.27-.6c-.78-.78-1.59-1.54-2.32-2.37-.49-.56-1.21-1.24-1.19-1.84,0-1.3-.73-1.34-1.53-1.3s-1.58.32-1.46,1.46a5.9,5.9,0,0,0,4.53,4.86A6.33,6.33,0,0,0,1006.59,428.22Zm9,25.3c-1.08-1.09-1.9-1.94-2.76-2.75-.57-.53-1.4-.78-1.1-1.89s-.63-1.31-1.29-1.17-1.52.68-1.57,1.14C1008.56,451.71,1012.18,454.53,1015.64,453.52Zm1,3.83c-.62.4-1.31,1.1-1.54,1a22.32,22.32,0,0,1-2.61-2c-.42-.32-.89-.58-1.34-.86-.13.46-.48,1-.35,1.38.64,2,1.73,3.52,4,4,1.19.25,2.19.36,2.69-.8A2.22,2.22,0,0,0,1016.62,457.35Zm5.69-15.72c-1,1.22-1.68,2.39-.67,4a6.1,6.1,0,0,1,.57,2.33c.18,1.15.29,2.32.44,3.58C1026,447.8,1024.4,445.14,1022.31,441.63Zm-34.18-57c-1.61.41-3-.38-2.93-1.41a9.62,9.62,0,0,0-.13-1.19,8.37,8.37,0,0,0-1.25.24,1.45,1.45,0,0,0-.94,2.16,9,9,0,0,0,1.91,2.36c.8.74,1.91,1.71,2.87.84C988.22,387.14,988,385.76,988.13,384.65ZM1013.85,416c-.75,1.14-2.15,1.84-1.15,3.46a7.76,7.76,0,0,1,.95,2.46c.26,1.25.34,2.52.51,3.87C1016.66,422.82,1016.59,420.43,1013.85,416Zm-4.49,20.66c.16-.09.74-.21,1-.56s-.07-.9-.33-1.17a4.65,4.65,0,0,0-1.55-1c-1.1-.43-2.17-.74-2.38-2.2,0-.31-.88-.62-1.39-.7-.16,0-.67.68-.64,1C1004.2,434.07,1007.06,436.66,1009.36,436.67Zm-18.88-39.52c-.39,2.86,1.15,4.15,3.14,5a2.71,2.71,0,0,0,2.16-.17c.52-.32-.39-2-1.19-2.4a15.93,15.93,0,0,1-1.58-.84C992.16,398.21,991.32,397.68,990.48,397.15Zm-13.32-22.43c-.24,2.58,1,4.23,3.49,5.06.83.27,1.63.57,2.11-.36a1.8,1.8,0,0,0-.45-2.51C979.65,378.11,979,375.32,977.16,374.72Zm10,15.5c.49,3.26,2.77,5.12,5.07,4.69a1.8,1.8,0,0,0,1.12-.8c.11-.21-.22-.89-.52-1.05C990.93,392.06,989,391.16,987.12,390.22Zm13.94,11.51c.07-3.25-2.24-6.55-4.8-7C996.84,398.49,998.91,401.55,1001.06,401.73Zm15,31.88c2-2.79,1.48-5.3.93-8.21-1.16,1.49-2.69,2.62-2.84,3.91S1015.3,432,1016.09,433.61Zm-28.5-58.75-.51.4c.76,1.66,1.52,3.33,2.29,5,.44,1,1.13,1.7,2.23,1.13s1-1.72.54-2.66a14.16,14.16,0,0,0-1.53-2.22c-.07-.1-.22-.15-.4-.26l-.07,1.64Zm10.55,35.5s.08-.09.07-.12a40.06,40.06,0,0,0-1.82-5c-.21-.42-1.46-.4-2.22-.37a2.24,2.24,0,0,0-.36,1.5A5.49,5.49,0,0,0,998.14,410.36Zm27.39,40.85c-1,1.1-1.86,2-2.64,3a1.36,1.36,0,0,0-.18,1.18c.59,1.2,1.31,2.35,2,3.62C1026.57,456.45,1026,453.9,1025.53,451.21Zm-34.89-68.06c.88,2,1.76,4.07,2.69,6.09.16.36.72.93.82.88a2.6,2.6,0,0,0,1.16-1c.56-1.19-.14-3.07-1.49-4.29v1.55C992.49,385.35,993,382.94,990.64,383.15Zm3.53-6.15c-.2.41-.45.67-.44.93a26.35,26.35,0,0,1,.1,4.25c-.25,1.63.63,2.23,1.75,2.86C996.39,383.51,995.58,378.65,994.17,377ZM983,363.13a14.48,14.48,0,0,0,3.65,7.4C988.53,368.41,985.76,364.4,983,363.13Zm-3,10.18c-.48-.91-1-1.82-1.45-2.74-.18-.34-.5-.74-.43-1,.22-1-.25-1.39-1.07-1.37s-1.4.64-1.29,1.64A4.37,4.37,0,0,0,980,373.31Zm-4.57-12.06c-.65,3.52,1,6,4.12,6.12Zm36.29,68.05-.3.21c.42,1.52.78,3.06,1.29,4.55.14.39.76.63,1.15.94.32-.48.87-1,.88-1.44a5,5,0,0,0-.55-2c-1.58.31-1.47-.92-1.8-1.78C1012.31,429.57,1012,429.46,1011.72,429.3Zm13.6,105,.55.19c1.13-1,3.31-7.64,2.66-8.77ZM997.16,387.56l-.55.11c0,1.19.09,2.39,0,3.56-.15,1.61.18,1.94,2.22,1.57Zm9.18,28.52-.4.12a16.1,16.1,0,0,0,2.83,8.29l.38-.12C1008.21,421.6,1007.28,418.84,1006.34,416.08Zm21.19,107.27c-.87,2.33-2.69,4.37-2.3,7.07C1026.27,528.14,1027.7,526,1027.53,523.35Zm-47-156.29,3.05,4.88C982.53,367.66,982.34,367.37,980.56,367.06ZM1002,401.55l.64-.14c.91-1.83-.83-2.81-1.72-4.08Zm14.48,48.57-2.34-5.1C1013.94,447.41,1014.9,449.59,1016.5,450.12Zm2.49,7,.25.21,1.44-2.29.41.27-2.1-1.28Zm-36.44-82.79.67-.27-2-4-.53.27C980.48,372.13,981.9,373.06,982.55,374.37Zm23.22,36.36a3.67,3.67,0,0,0-1.41-4.57Zm.27,9.33-.69.29,1.71,4.26.6-.24Zm4.55,10.07-.76.2,1.29,3.75.55-.17Zm-20.4-43.88c0,2,.71,3.09,1.86,3.15Zm-4.79-11-.4.16,1.72,3.49.46-.23ZM1022.91,457l-.52.05.34,2.84.59-.09Z" transform="translate(-752.74 -321.31)"/><path d="M1073.65,604a18.89,18.89,0,0,0-1.12,4c-.29,4.87-.38,9.76-.6,14.64,0,.47-.46.92-.7,1.37-.21-.48-.61-1-.6-1.44.06-3.83.18-7.66.34-11.49.44-11.13.85-22.25,1.39-33.37.28-5.79.64-11.58,1.28-17.34.55-5,1.41-10.07,2.38-15.06a83.54,83.54,0,0,1,2.76-10.81c1.5-4.47,3.42-8.8,5.07-13.22a11.24,11.24,0,0,0,.3-2.68l-.56-.12c-1,2.54-2.19,5-3,7.61-1.41,4.36-2.71,8.75-3.87,13.18a97.46,97.46,0,0,0-2.37,11.05c-1.1,7.72-2,15.47-2.86,23.22-1.83,15.85-1.27,31.8-1.83,47.71a12.81,12.81,0,0,1-.09,2c-.06.29-.44.52-.68.78-.19-.3-.56-.59-.55-.88.44-12,.87-24,1.42-35.93.29-6.34.61-12.69,1.26-19s1.66-12.76,2.68-19.11c.56-3.47,1.4-6.89,2.25-10.3a72.66,72.66,0,0,1,2.75-9.67c1.48-3.7.63-7.29.31-11-.17-2-.27-3.92-.34-5.88-.38-10.08-.74-20.16-1-30.24q1.47,20.24,2.93,40.46l.32.13c.55-1.53,1.45-3,1.55-4.6a25.3,25.3,0,0,0-.62-6.29c-.38-2-.76-3.85.4-5.78a30,30,0,0,0,4.46-13.14c0-.54.38-1.06.45-1.58-.43,3.51-.87,7-1.26,10.54,0,.21.3.46.32.49l5.83-14.23c-.12,1-.23,1.59-.27,2.23a7.09,7.09,0,0,0,0,1.95,10.77,10.77,0,0,0,1,2.06l2.82-9.35.63,3c.27-.18.41-.24.41-.28-.23-3.88,2.17-6.77,3.62-10.05a36.27,36.27,0,0,0,1.63-6.37,16.9,16.9,0,0,1,.78-2.93c-.2,1.14-.42,2.27-.6,3.41s-.45,2.48-.55,3.73,0,2.27,0,3.4l.5,0c.1-.15.26-.3.27-.47.24-3.3,1.7-6.09,3.35-8.9a32.76,32.76,0,0,0,2.08-5.56c-.17,1.14-.41,2.22-.47,3.3a7.92,7.92,0,0,0,.26,2.37c.07.29.54.48.82.72.17-.28.36-.55.5-.84.86-1.78,1.73-3.56,2.56-5.36,1.42-3.08,2.81-6.17,4-9.42l-1.44,6.84.34.1,5.52-8.1c-.07,1-.17,2.14-.26,3.29l.65.2c.59-4.86,4.63-7.68,6.42-12.24-.15,1.67-.29,2.89-.34,4.1,0,.25.37.51.57.77.23-.22.6-.4.66-.66.6-2.61,2.8-4.12,4.23-6.16.79-1.13,1.55-2.28,2.36-3.48-.27.93-.54,1.84-.8,2.75l.26.12,5.89-6.62a25,25,0,0,0-.33,2.86c0,.28.44.57.69.85.22-.23.56-.43.64-.7a9.89,9.89,0,0,1,3.31-4.57c1.24-1.11,2.44-2.28,3.57-3.35-.21.67-.46,1.49-.72,2.31l.47.29c4.54-5.09,8.36-10.8,13.06-15.76-1.31,1.75-2.59,3.53-3.94,5.25-1.2,1.54-2.52,3-3.7,4.53-1.67,2.19-3.28,4.43-4.84,6.7-.21.31,0,.91,0,1.37a3.15,3.15,0,0,0,1.16-.32,12,12,0,0,1,2.36-1.81l-.64,1.2c.28-.09.49-.1.6-.21,1.79-1.8,3.64-3.56,5.34-5.45,2.58-2.87,5.07-5.81,7.57-8.74.62-.73,1.06-1.61,1.7-2.32a10.05,10.05,0,0,1,1.62-1.24l.35.39-13.36,15.63a1.91,1.91,0,0,0,2.49-.48q3.7-3.29,7.49-6.52a2.14,2.14,0,0,1,1.53-.38l-8.28,7.35.79.89,8.69-6.49.17.21c-1.18.95-2.34,1.92-3.53,2.85a62.39,62.39,0,0,0-6,4.6c-1.35,1.33-2.18,3.17-3.29,4.84,1.06.8,1.88.36,2.68-.2l7.48-5.32a.64.64,0,0,1,.57-.14c-4.91,3.32-9.35,7.11-12.64,12.16,2.71-.06,4.38-2.38,7-3.61l-4.2,3.55.22.32,5.38-3.55c-5.7,4.39-11.58,8.56-17,13.24l.34.47,2.42-1.26-11.17,9.82.16.29,12-6.31.17.27c-2.17,1.22-4.37,2.4-6.5,3.68a70.77,70.77,0,0,0-6.33,4.05c-2,1.52-3.83,3.33-6.09,5.33,5.79-2.61,10.78-5.87,16.1-8.54-1.25.81-2.48,1.64-3.75,2.43s-2.67,1.6-4,2.38c-3.58,2.11-7.31,3.94-10,7.34-1.23,1.53-3.2,2.47-4.81,3.65,1.31.9,3.21.26,8.46-2.78-2.39,1.76-4.83,3.47-7.17,5.31s-4.67,3.88-7.13,5.94c.41,0,1,.25,1.49.05,1.61-.7,3.19-1.49,4.72-2.34,3.37-1.89,6.71-3.83,10.23-5.5-2.08,1.3-4.15,2.62-6.24,3.9-2.74,1.68-5.55,3.24-8.22,5a15.82,15.82,0,0,0-2.79,2.92,13,13,0,0,1-5.77,3.7.42.42,0,0,0-.29.38c3.21,1.11,5.43-1.35,7.89-2.12L1106,502.63a2.64,2.64,0,0,0,3,.46c2-.95,4-2,6.06-3a2.76,2.76,0,0,1,1.22-.45c-1.64,1.17-3.3,2.31-4.93,3.5a21,21,0,0,0-3.53,2.77,20.48,20.48,0,0,1-6.37,4.73,4.06,4.06,0,0,0-.64.52,2.61,2.61,0,0,0,3-.1c2.83-1.53,5.62-3.14,8.42-4.73a58.47,58.47,0,0,1,5.86-3.11c-1.52,1-3,2-4.58,2.92-3.41,2.12-6.88,4.15-10.22,6.38-1.18.78-2,2.09-3.06,3-1.23,1.1-2.56,2.07-3.85,3.09,1.21,1.3,2,1.11,8.39-1.94-1.34.9-2.72,1.76-4,2.71s-2.82,2.08-4.12,3.24a15.26,15.26,0,0,1-8.36,3.87,5.27,5.27,0,0,1-4.91-1.52c-.94,3.09-2.64,5.79-2.28,9.32.9,8.86,1.7,17.75,1.94,26.65a228.89,228.89,0,0,1-.65,23.86c-.55,7-1.77,14-2.87,20.93-.83,5.26-1.91,10.49-2.92,15.72a15.25,15.25,0,0,1-.82,2.32l-.43-.11c.23-1.29.43-2.59.68-3.88.68-3.5,1.52-7,2-10.5,1.16-7.86,2.12-15.75,3.26-23.62a118,118,0,0,0,.77-25.61c-.57-7.88-1.26-15.75-1.9-23.63a1.75,1.75,0,0,0-.49-1.08c-.41,1.28-.85,2.55-1.21,3.84s-.67,2.73-1,4.1a139.77,139.77,0,0,0-3.37,24.35c-.56,10.05-1.05,20.1-1.56,30.16A1.65,1.65,0,0,0,1073,599q2.41-4.85,4.85-9.69l.47.21-5.93,12.41.56.26,4.54-9,.49.2c-.38,4-2.91,7.14-4.37,10.7Zm62.95-158.83c2.86-1.16,3.17-3,2.06-6-3,1.62-5.17,5.21-4.29,7.39l2.29-1.37c-.75.73-1.52,1.44-2.23,2.22a3.49,3.49,0,0,0-1,1.57,6.18,6.18,0,0,0,.41,2.05c.76-.23,1.72-.24,2.23-.73a25.42,25.42,0,0,0,2.6-3.29c.36-.47.68-1,1-1.47l-.37-.37-3.2,2.47C1136.3,446.54,1136.45,445.86,1136.6,445.18Zm-48.11,63.92-.38-.2c.21-.83.42-1.65.62-2.47a9.49,9.49,0,0,0-2.2,2.72,7.34,7.34,0,0,0-.63,3.45c.06.62,1,1.33,1.67,1.66.32.15,1.16-.39,1.54-.81,1.32-1.5,2.6-3,3.8-4.64a5.23,5.23,0,0,0,1.14-4.74C1091.39,504.86,1090,507.05,1088.49,509.1Zm3.11-15a23.25,23.25,0,0,1-1.86,3.22c-1.52,1.91-1.42,4-.94,6.16.22,1,.78,1.16,1.68.72s1.78-.67,2.64-1.09,1.43-.85,2.47-1.47l-1.88-1.17C1093.34,495.9,1093.08,495.06,1091.6,494.13Zm15.92-23.46a9.86,9.86,0,0,0-3.27,9.08c.3,1.4.65,1.55,2,.88a13,13,0,0,0,1.76-.84c.4-.28.93-.8.91-1.19-.07-2.1-.25-4.19-.51-6.27A5.43,5.43,0,0,0,1107.52,470.67Zm1.16,10.63c-2.73.35-3.13,2.95-5.11,4l1.12-3.14a26.83,26.83,0,0,0-2.19,2.6c-.92,1.45-1.77,3-1,4.81.56,1.27,1.27,1.31,2,.17.68-1,1.37-2,2-3C1106.61,485,1107.6,483.21,1108.68,481.3Zm7-13.93a23.75,23.75,0,0,1,2.68-2.82c3.26-2.45,2.15-2.83,1.24-6.23C1115.63,461.25,1114.47,463.71,1115.7,467.37Zm3.62,2.95c-2.15.46-5.93,5.69-6.16,8.2,3-.08,4.66-1.33,5.82-4.5a25.89,25.89,0,0,0,.68-2.73l-1.17.88-.19-.19Zm-22,36,.65-1.79c-.51.18-1,.23-1,.37a38.59,38.59,0,0,0-.73,3.95c0,.17.67.6,1,.6,2.86-.05,4.83-1.67,6.38-3.87a1.56,1.56,0,0,0-.11-1.47c-.68-.4-1.53-.57-2.07.4A3.64,3.64,0,0,1,1097.37,506.36Zm16-40.94c-3.56,3.66-4.3,6.28-2.55,8.85,1.23-1.4,2.9-2.6,3.47-4.19C1114.76,468.89,1113.8,467.19,1113.4,465.42Zm-1.23,17.3c-.12.55-.25,1-.32,1.42-.28,1.77,0,2.06,1.77,1.88,2.72-.28,4.3-2.21,5.78-4.19.16-.21-.2-1.18-.34-1.19-.64,0-1.57-.05-1.88.33A4.21,4.21,0,0,1,1112.17,482.72ZM1088,520.5c-1,.49-2.25,1.2-1.83,2.68s1.85,1.42,3,1.22a6.93,6.93,0,0,0,4.74-3.16c.21-.31.34-1,.16-1.18a1.37,1.37,0,0,0-1.22-.25c-.4.13-.64.69-1,.9a9.49,9.49,0,0,1-2.55,1C1089.06,521.76,1088.61,521,1088,520.5Zm3.69-2.7a6.53,6.53,0,0,0,6.17-3.58,1.08,1.08,0,0,0-.79-1.72,3.31,3.31,0,0,0-1.87.35c0,1.41-1.19,1.45-2,1.93a13.9,13.9,0,0,0-1.89,1.17,4.72,4.72,0,0,0-.78,1.29Zm13.94-24.6c1.57,1.56,3,1.51,5.41.19,1.13-.61,2.36-2.53,2.13-3.42a1.39,1.39,0,0,0-1.92-1.13c-.44.16-.69.85-1,1.29l.2.17Zm16.93-33.54c1.28-2.16,2.35-4.06,3.52-5.9.84-1.33.18-2.49,0-3.84C1122.74,452.19,1121.13,456.37,1122.6,459.66Zm-36.2,44.25c-3.54,2.95-4.44,5.79-2.91,9.6a8.24,8.24,0,0,1,.42-1.2,46.54,46.54,0,0,1,2.78-5.11C1087.59,505.9,1087.69,505.08,1086.4,503.91Zm50-45.73c2.5,0,4.7-1.49,5.28-3.23a2.24,2.24,0,0,0-1.38-2.14c-.81-.11-.92.43-1.24,1.09a2.86,2.86,0,0,1-2.09,1.41c-1.67,0-1.1,1.4-1.64,2.07Zm-37.52,31.45a45.36,45.36,0,0,1,3-5.52c1-1.41.7-2.5.09-3.83C1098.4,483.62,1097.52,486.27,1098.91,489.63Zm2.31,12.09a7.69,7.69,0,0,0,5.9-3.19,3.73,3.73,0,0,0,.13-1.36c-.55,0-1.4-.19-1.6.08a5.2,5.2,0,0,1-4,1.95c-.64.07-1.18,1.06-1.76,1.62Zm34.56-41a9,9,0,0,0-1.81,0c-1.52.34-3,.73-4.51,1.19-.45.14-.8.61-1.2.93.44.43.81,1.09,1.32,1.25C1131.83,464.81,1134.77,463.23,1135.78,460.76Zm8.32-12.39c-1.4.68-1.92,2.12-.85,2.8a3,3,0,0,0,2.48.4,22,22,0,0,0,3.69-3.15c.21-.19.13-.68.17-1C1147.58,447.2,1146.35,450.31,1144.1,448.37ZM1130.64,467c-2.09-.47-5.75,1.14-7.08,3C1125.45,472,1129.57,470.29,1130.64,467Zm-34.37,22.2c-2.29,3.52-2.61,6.09-1,7.44.92-1,1.88-1.9,2.74-2.92a1.33,1.33,0,0,0,.11-1.2C1097.59,491.46,1096.94,490.42,1096.27,489.24Zm22.78-11.61.44.41a5.83,5.83,0,0,0,4.83-2.74,6.16,6.16,0,0,0,.6-1.77c-.55-.13-1.11-.29-1.67-.38a6.23,6.23,0,0,0-1,0Zm-.64-8.68c2.35.28,6-3.13,6.76-6.1C1122.13,463.36,1120,465.24,1118.41,469Zm12-15.27c-2.61,1.74-3.23,3.61-1.85,5.19,1.45-.65,4.83-4.86,5.17-6.53a11,11,0,0,0-2.13,1.15,8.34,8.34,0,0,0-1.22,1.76L1130,455ZM1147,434.45c-3.9,1.56-6.38,3.85-5.65,6.53C1144.11,439.65,1145.71,437.39,1147,434.45Zm-18.68,19.25c1.4-.44,2.43-.79,2.57-2.33a4,4,0,0,1,1-2.29c1.06-1.09.43-2,0-3.13C1130.84,448.53,1128.2,450.35,1128.36,453.7Zm18.86-8.27c2.32.62,5.27-1.38,5.21-3.34a1.75,1.75,0,0,0-1.14-1.21c-.35-.08-.91.55-1.3.94s-.41.74-.67,1.06C1148.69,443.69,1148,444.47,1147.22,445.43Zm7.9-11c-1.81,1.68-4.07,2.9-5.55,5.14C1152.66,440,1153.86,438.88,1155.12,434.46Zm-57.34,60.61a2.93,2.93,0,0,0-1.52,3.05,1.54,1.54,0,0,0,.81,1c.2.09.75-.25.93-.54,1-1.49,1.86-3,2.81-4.58-1.85-.75-1.39,1.66-2.61,1.85Zm6.54-5.36.37.29c1.83-2.42,4.17-4.51,5-7.55l-.53-.33Zm22.24-34-.15-.15-3.07,5,.41.53c.64-.27,1.7-.39,1.85-.82A36.17,36.17,0,0,0,1126.56,455.74Zm17.31-13.05.71.75,3.54-4.05-.46-.48C1145.73,439.47,1144.85,441.13,1143.87,442.69Zm-57.18,73.77-2.74,1.23,1.84,2.51C1086.11,518.88,1086.36,517.82,1086.69,516.46ZM1109.26,486l-.42-.31-3.09,4.14.47.36C1107.34,488.85,1108.92,487.88,1109.26,486Zm-19.07,27.32.35.27c2-1.42,3.06-2.89,3-4.65Zm53.57-67.93.47.4a4.68,4.68,0,0,0,2.89-3.38l-.33-.28ZM1111.53,477l2.22-4.46A4.2,4.2,0,0,0,1111.53,477Zm6.12-8.75,2-3.14C1117.87,465.6,1117.3,466.45,1117.65,468.29Zm-15.76,27.2-.52-.31-2.06,3.05.67.41C1100.61,497.59,1101.25,496.54,1101.89,495.49Zm32.06-39-.74-.71-2.76,2.55.74.75Zm4.85-7.55.37.3,2.49-3-.29-.24Z" transform="translate(-752.74 -321.31)"/><path d="M1010.53,535.57c.42-1.79.82-3.59,1.25-5.38.78-3.16,1.89-6.29,2.27-9.5.25-2.1-.4-4.35-.88-6.48-.62-2.74-1.47-5.42-2.22-8.12a6.37,6.37,0,0,0-.18-.89,8.76,8.76,0,0,0-.63-1.11,4.74,4.74,0,0,0-1,.78c-3,4.14-6,8.31-8.95,12.46-2.61,3.62-5.26,7.21-7.88,10.81-3.55,4.87-7.1,9.72-10.62,14.6s-6.93,9.73-10.44,14.55c-3.76,5.15-7.6,10.24-11.39,15.37-1.4,1.9-2.74,3.85-4.14,5.76a5.72,5.72,0,0,1-1.63,1.58c1.08-1.69,2.12-3.4,3.24-5.06,1.41-2.08,2.9-4.1,4.33-6.16q4.67-6.72,9.31-13.48l2.9-4.21c3.17-4.64,6.3-9.31,9.52-13.91,3.45-4.93,7-9.81,10.5-14.68s7.1-9.73,10.68-14.57c1.19-1.61,2.44-3.18,3.72-4.72,1-1.15,1.35-2.31.53-3.7a1,1,0,0,1,.09-1.08,35.32,35.32,0,0,1,1.84,4.26c1.52,5.37,3,10.75,4.34,16.18,1.07,4.44,2,8.93,2.69,13.45,1,6.6,1.79,13.25,2.75,19.86,1.83,12.59,2.15,25.28,2.43,38,.22,9.72,0,19.45.13,29.18-.25-21.59-.7-43.17-3.76-64.71-.53,1-1.11,1.93-1.58,2.94-.94,2.05-1.8,4.14-2.73,6.2a83.94,83.94,0,0,1-3.92,8.3,20.1,20.1,0,0,1-6.74,7.37,2.82,2.82,0,0,0-1.15,1.75c-1.13,6.13-2.36,12.25-3.18,18.42-1,7.63-1.64,15.3-2.43,22.95,0,.44-.09.89-.13,1.33-1.3.48-1.57-.15-1.51-1.21.13-2.66.25-5.31.18-8-.22,2.75-.41,5.51-.68,8.25,0,.37-.44.7-.68,1-.15-.37-.45-.75-.42-1.1.43-5,.88-9.92,1.38-14.87.37-3.67.72-7.33,1.25-11,.69-4.67,1.51-9.33,2.37-14,.82-4.4,1.73-8.78,2.67-13.15.87-4,1.83-8,2.75-12,.82-3.62,1.62-7.24,2.46-10.86.17-.73.59-1.4.69-2.13a15.7,15.7,0,0,0,.3-4.3c-.75-4.86-1.67-9.7-2.58-14.54-.49-2.61-1.1-5.2-1.61-7.8a6.19,6.19,0,0,1,.08-1.48l.46-.06a19.33,19.33,0,0,1,.91,2.58c.64,3.27,1.17,6.55,1.8,9.82s1.31,6.27,2.18,9.43a10,10,0,0,0,0-1.82c-1.18-6.38-2.4-12.76-3.61-19.14-.12-.67-.23-1.35-.34-2l.5-.1,4,20.1Zm-1,31.24a13.48,13.48,0,0,1-1.89,2.26c-1.42,1.12-2.53,2.34-2.52,4.35a20.59,20.59,0,0,0,3.74-3.72c.57-.8.55-2,.79-3,.38-.28.94-.48,1.12-.86,1-2,1.86-4.11,2.76-6.17,1.67-3.81,3.32-7.63,5-11.43.33-.75.47-1.32-.3-1.37a21.63,21.63,0,0,0,.27-3.22c0-1-.43-2-.57-2.93-.54-3.74-1-7.48-1.57-11.22a9.61,9.61,0,0,0-.64-1.7,11.9,11.9,0,0,0-.58,1.35c-.92,3.8-1.82,7.61-2.73,11.42-.84,3.5-1.73,7-2.54,10.5-1.38,5.92-2.72,11.85-4.06,17.77a8.32,8.32,0,0,0,0,1.28Zm-10.13,23.81.37.07c.06-.22.14-.45.18-.67,1-4.57,1.9-9.15,2.91-13.72.82-3.72,1.71-7.44,2.63-11.15,1.68-6.72,3.45-13.43,5.11-20.16q2.28-9.22,4.38-18.5a14.29,14.29,0,0,0,0-3.07l-.45,0c-.68,2.45-1.39,4.89-2,7.36-.91,3.55-1.76,7.11-2.63,10.67s-1.79,7.22-2.66,10.83-1.68,6.93-2.46,10.41c-1,4.57-2,9.14-2.91,13.72-.57,2.86-1,5.76-1.48,8.64C1000.1,586.92,999.75,588.77,999.42,590.62Zm20.08-39.56-.62-.19c-1.27,2.87-2.56,5.73-3.81,8.61-1.44,3.32-2.79,6.67-4.28,10a29.24,29.24,0,0,1-2.38,4.18c-.52.78-1.13,1.75-2.42.82-.21-.15-1.26.43-1.51.9a10.53,10.53,0,0,0-.5,2.78c1.06-.53,1.94-.7,2.38-1.23a45.08,45.08,0,0,0,4.75-6.33c1.58-2.85,2.68-6,4-8.94,1.11-2.47,2.28-4.9,3.36-7.39C1018.92,553.22,1019.16,552.12,1019.5,551.06Z" transform="translate(-752.74 -321.31)"/><path d="M1062.25,527a523.3,523.3,0,0,0,10.86-61.26c-.52,3.32-1,6.64-1.56,9.95q-1.35,7.8-2.8,15.59c-.79,4.24-1.65,8.48-2.51,12.72q-1.23,6-2.53,12.1c-.9,4.17-1.61,8.4-2.8,12.49-1.64,5.65-2,11.46-2.81,17.24a127,127,0,0,0-.49,24.42c.69,11.4,1.7,22.79,2.79,34.16.58,6.11,1.64,12.16,2.44,18.24a4,4,0,0,1-.35,1.4c-.33-.4-.9-.77-1-1.2-1.19-10.35-2.17-20.72-3.49-31.05a245.3,245.3,0,0,1-1.68-31.35c0-7.75.46-15.52,1.18-23.23.44-4.68,1.76-9.27,2.72-13.9.83-4,1.71-8.06,2.56-12.08s1.68-8,2.52-11.94q1.35-6.42,2.71-12.83c.91-4.32,1.8-8.65,2.73-13,.72-3.39,1.41-6.79,2.27-10.13a30.6,30.6,0,0,1,1.67-4.14,25.25,25.25,0,0,1,.29,4.89,41.48,41.48,0,0,1-1.44,5.46,35.93,35.93,0,0,0-.8,4.11c0,.25.53.78.89.84s1-.28,1.46-.24a5,5,0,0,1,1.37.55c-.25.42-.41,1-.78,1.23a6.2,6.2,0,0,1-2.17.6,1.46,1.46,0,0,0-1.44,1.45c-.16,1.35-.28,2.71-.48,4.06-.16,1.07.31,1.51,1.32,1.49a6,6,0,0,0,1.65-.11c1.11-.3,1.59.2,1.94,1.55a28.78,28.78,0,0,1-4.09.67c-1.31,0-1.83.43-2,1.79q-.72,5.93-1.73,11.81-1.2,6.9-2.65,13.76c-.75,3.54-1.63,7.05-2.53,10.55a29.71,29.71,0,0,1-1.3,3.3Z" transform="translate(-752.74 -321.31)"/><path d="M1026.76,623.94h-2v-2.18c0-13,.08-26-.06-39-.07-6.55-.35-13.11-.88-19.64-.7-8.52-1.63-17-2.7-25.52-.62-5-1.62-9.93-2.61-14.86-.69-3.44-1.51-6.88-2.53-10.24-1.23-4.08-2.74-8.07-4.12-12.1-.15-.46-.26-.94-.4-1.46,1.4-.21,2.19.1,2.59,1.49,1.19,4.1,2.63,8.13,3.72,12.25s2,8.1,2.66,12.21c1.11,6.74,1.93,13.54,2.94,20.3,2,13.23,2.3,26.58,2.73,39.92.4,12.13.54,24.26.78,36.4C1026.88,622.27,1026.8,623.07,1026.76,623.94Z" transform="translate(-752.74 -321.31)"/><path d="M1153.43,493.56a5.15,5.15,0,0,1,3.56-3c-1.56,1.81-2.87,3.43-4.27,5-1.93,2.1-3.94,4.12-5.9,6.19q-6.35,6.72-12.68,13.47c-2.1,2.22-4.16,4.48-6.31,6.66-4,4.07-8.09,8.06-12.09,12.14a64.35,64.35,0,0,0-5.56,6.12c-3.23,4.27-6.38,8.63-9.34,13.1-2.76,4.17-5.29,8.5-7.82,12.82-2.33,4-4.51,8-6.77,12a2.4,2.4,0,0,1-.42.39c-.55-1.33.28-2.27.78-3.2,1.16-2.16,2.44-4.25,3.67-6.38,2.22-3.86,4.33-7.8,6.67-11.6,2.52-4.09,5.12-8.14,7.92-12a113.53,113.53,0,0,1,8.08-10.08c3.64-4,7.6-7.69,11.39-11.55,2.18-2.22,4.28-4.52,6.45-6.75,3.12-3.19,6.27-6.34,9.4-9.52,1.86-1.89,3.74-3.77,5.56-5.71,2.06-2.19,4-4.44,6.07-6.65Z" transform="translate(-752.74 -321.31)"/><path d="M1044.85,584.4l2.79-11.24.45.08v50.53l-.19,0c-.75-4.57-1.35-9.18-2.31-13.71s-2.28-9-3.44-13.54h-.57c-.36,1.1-.71,2.2-1.06,3.3l-.22,0c.48-1.84.92-3.68,1.43-5.5.7-2.52,1.44-5,2.2-7.52.24-.76.61-1.47.92-2.21-.33,1-1.12,2.08.56,2.65l.78,6.75.43,0v-9.86l-.23,0-1,3.23,1.11-6.25-.43-.09Zm1.52,26.41.41-.06a22.71,22.71,0,0,0-.33-2.87c-.75-3.17-1.58-6.31-2.36-9.47-.4-1.6-.74-3.21-1.11-4.82l-.49.12C1043.07,599.57,1045.21,605.08,1046.37,610.81Zm-2.3-22.32c-.46,4.42,2,8.31,2.42,12.59C1046.79,596.69,1045.59,592.57,1044.07,588.49Z" transform="translate(-752.74 -321.31)"/><path d="M1049.17,353.27c-.58,1.42-.65,3.16-2.68,3.6,3.38-3.33,1.74-7.23,1.39-11l.37-.07c.26.94.56,1.87.75,2.83s.28,2,.43,3.08c2,.21,3-1.25,4.06-2.44,1.3-1.51,2.5-5.23,2.71-7.54a10.81,10.81,0,0,1-3.11.85,11.07,11.07,0,0,1-3.14-1.2l-1.29,3.41-.13-.08.82-10,.57,1.32c1.89-1.28,1.95-2.86.51-11.3,1.2,1.49,1.36,2.25,1.83,9a8.55,8.55,0,0,0,1.64-1,10.13,10.13,0,0,0,3-6.7,26.3,26.3,0,0,1,.71-4.32,12.61,12.61,0,0,1-3.65,12.74,1.56,1.56,0,0,1-.63.41c-2.79.55-3.13,2.6-3.06,4.94.28,0,.62-.11.82,0,2.09,1.29,3.73,1,5.3-.93a11.72,11.72,0,0,0,2.6-6c.23-1.63.59-3.24.88-4.86l.61.12c-.63,3.22-.78,6.64-2,9.59a19.23,19.23,0,0,0-1.48,6.27c-.32,3.89-2.34,6.75-5.37,9C1050.92,353.58,1050.1,354.08,1049.17,353.27Z" transform="translate(-752.74 -321.31)"/><path d="M960.36,416.22c1.3,2.37,2.55,4.77,3.9,7.12,2.2,3.82,4.46,7.6,6.68,11.4q1.51,2.6,3,5.23c1.44,2.59,2.82,5.21,4.28,7.78,2.67,4.71,5.26,9.47,8.11,14.07A75.74,75.74,0,0,1,994,478.08c.71,2.14,1.52,4.25,2.22,6.39a1,1,0,1,1-.56,1.22c-1-2.79-1.88-5.62-3-8.36-1.86-4.53-3.7-9.08-6.49-13.17-1-1.49-1.87-3.09-2.77-4.65-2.8-4.87-5.63-9.73-8.37-14.63-2.2-3.94-4.3-7.94-6.45-11.91-1.78-3.31-3.55-6.63-5.35-9.92-1.12-2-2.31-4-3.43-6.06-.35-.64-.58-1.34-.87-2l.55-.44.4.94Z" transform="translate(-752.74 -321.31)"/><path d="M1099.63,371.39l1.23-1.2c1.74,2.65,4.15,2.57,6.7,1.62a13.51,13.51,0,0,0,7.11-6.43q1.51-2.7,3.07-5.36a1.8,1.8,0,0,1,1.06-.81c-1.13,2.53-2.28,5.05-3.39,7.59-1,2.2-2.73,3.67-4.48,5.2a2.84,2.84,0,0,0-.94,1.4c-1.31,6.34-5.64,9.86-11.3,12.12a8.92,8.92,0,0,1-2.38.4c-.89.09-1.34-.31-1.16-1.25l-.05.05c1.11-.36,2.23-.67,3.31-1.09a17,17,0,0,0,10.09-10.06,18.85,18.85,0,0,1-2.39.75,12.9,12.9,0,0,1-2.56.15,3.81,3.81,0,0,1-3.87-3.13Z" transform="translate(-752.74 -321.31)"/><path d="M1047.25,371.54l1.65,8.61a14.32,14.32,0,0,0,5.14-8.23c.51-2.22,1.3-4.38,2-6.57l.62.17c-1,3.68-1.63,7.46-2.92,11a9.62,9.62,0,0,1-5.33,5.69c-.32.13-.53.52-.79.8l-2,2.14-.42-.27a3.5,3.5,0,0,1,.42-1c2.38-2.66,2.4-5.67,1.52-8.9a70.38,70.38,0,0,1-1.76-8.4l.69,2.18.48-.07-.38-8.13a11.88,11.88,0,0,0,3.22,0,7.48,7.48,0,0,0,4.94-4.93c.89-2.51,1.55-5.09,2.32-7.65a6.4,6.4,0,0,1,.74-1.75,73,73,0,0,1-1.22,8c-.83,3.14-2.31,6.06-5.24,7.8a18.15,18.15,0,0,1-3.71,1.23,9.85,9.85,0,0,1-.27,6.07c-.23.65.18,1.5.3,2.26Z" transform="translate(-752.74 -321.31)"/><path d="M1153.43,493.56l-1.61,1.39c-3.7,3.67-7.43,7.32-11.11,11-5.45,5.49-10.86,11-16.29,16.52-4.65,4.72-9.39,9.35-13.9,14.2a61.88,61.88,0,0,0-6.06,7.87c-3.19,4.75-6.22,9.6-9.26,14.45-1.64,2.64-3.18,5.34-4.75,8-1.36,2.33-2.69,4.68-4,7l-.41-.16a7.8,7.8,0,0,1,.48-1.46c1.75-3.15,3.46-6.33,5.33-9.41q4.35-7.11,8.9-14.1a94.6,94.6,0,0,1,6.26-8.84c2.93-3.54,6.16-6.85,9.31-10.21,2.06-2.19,4.19-4.32,6.32-6.44,4.07-4.08,8.18-8.13,12.26-12.21,2.91-2.91,5.8-5.84,8.7-8.77s5.91-6,8.88-9C1152.76,493.14,1153.24,492.41,1153.43,493.56Z" transform="translate(-752.74 -321.31)"/><path d="M991.13,519.87c.36-1.38.78-2.75,1.07-4.15.61-2.91,1.11-5.84,1.73-8.75q1.47-6.86,3-13.7c.7-3.13,1.46-6.26,2.21-9.38q1.43-5.94,2.89-11.87c.31-1.26.69-2.51,1.11-3.74.12-.34.5-.58.77-.88l.39.2c-.55,2.64-1.06,5.28-1.65,7.9-.78,3.48-1.63,6.95-2.44,10.42q-1.37,5.86-2.74,11.74c-.81,3.47-1.64,6.94-2.45,10.41s-1.63,7.14-2.51,10.7c-.13.49-.63.89-.95,1.33Z" transform="translate(-752.74 -321.31)"/><path d="M1052.38,455.33c.51,3.12.9,6.26,1.56,9.35a11.11,11.11,0,0,0,5.08,7.37,4.57,4.57,0,0,0,1.56.59,15.56,15.56,0,0,1-1.19-8.13,8,8,0,0,1,.44-2.37c.67-1.47.14-2.4-.94-3.4a14.52,14.52,0,0,1-4.92-11.85c.1-1.91,0-3.83.26-5.78.27,2.48.37,5,.84,7.41.7,3.6,1.42,7.27,4.5,9.8a7.52,7.52,0,0,0,1.91.77c-2.24,5-2.61,10,2.48,14.49-.81.23-1.59.74-2.16.57a19.06,19.06,0,0,1-4.49-1.94,8.37,8.37,0,0,1-2.47-2.62c-2.14-3.33-3.55-6.88-2.92-11,.17-1.09.22-2.2.33-3.3Z" transform="translate(-752.74 -321.31)"/><path d="M1058.4,419.91c.42,3.18.67,6.4,1.32,9.54a12.64,12.64,0,0,0,5.13,7.73,3.09,3.09,0,0,0,.81.41c.28.09.58.12,1.18.24-.28-.77-.46-1.37-.71-1.93A10.52,10.52,0,0,1,1066,427a1.86,1.86,0,0,0-.74-2.67,9.61,9.61,0,0,1-2.7-3c-1.67-2.77-3-5.68-2.65-9.09.16-1.69,0-3.4,0-5.1l.38,0c.37,2.72.78,5.43,1.07,8.15a13.65,13.65,0,0,0,3.51,7.69,10.73,10.73,0,0,0,2.27,1.54c-2,7.1-1.54,9.84,2.53,14a1.94,1.94,0,0,1-2.59.77,13.64,13.64,0,0,1-4.21-2.21,17,17,0,0,1-4.76-8.23C1057.31,425.76,1058.83,422.88,1058.4,419.91Z" transform="translate(-752.74 -321.31)"/><path d="M1109.19,378.92c-1.59,3-3,6.21-4.82,9.09a16.36,16.36,0,0,1-12.15,7.79,20.56,20.56,0,0,1-3.38-.12c-.39,2.49-.44,5.17-2.76,7.38.74-4.12,1.43-7.89,2.11-11.66l.16,0,.23,2.79.25,0,.08-1.54c4.61,2.17,8.22-.07,11.64-2.67a15.8,15.8,0,0,0,3.07-3.49c1.3-1.84,2.4-3.83,3.66-5.7a17.49,17.49,0,0,1,1.78-2Z" transform="translate(-752.74 -321.31)"/><path d="M1051,624c-.65-19.69-.48-39.19-.24-59.08l-1.1,2.12-.27-.1,1.79-6.14c0,2.78,0,6,0,9.28a72.09,72.09,0,0,0,.87,13.67,22.22,22.22,0,0,1-.71,12.08,5.42,5.42,0,0,0-.17,1.94c.11,6.6.19,13.2.38,19.79a36.51,36.51,0,0,0,.73,4.61C1052.46,623.37,1052.44,623.4,1051,624Zm.82-39-.4,0v6.3h.4Z" transform="translate(-752.74 -321.31)"/><path d="M1080.79,363.6c.47,13.63-.66,28.07-2.19,30.28-.71-.75-1.42-1.59-2.21-2.33a12.34,12.34,0,0,1-3.63-5.61,17.19,17.19,0,0,1,.09-8.52,17.6,17.6,0,0,0,.43-2.92c0,3-.14,6,0,9a9.85,9.85,0,0,0,3.85,7.54,7.48,7.48,0,0,0,1.21.57c.46-2.62.94-5.06,1.31-7.51a13,13,0,0,0-.9-7.61,9.37,9.37,0,0,1,.45-8.19A31.54,31.54,0,0,0,1080.79,363.6Zm-.42,4.17c-.51,2.61-1.11,5.22-.5,7.89h.5Z" transform="translate(-752.74 -321.31)"/><path d="M1062.25,527c-.18,1.54-.28,3.1-.56,4.63-2.22,11.84-2.54,23.81-2.29,35.8.16,7.41.44,14.81.9,22.21.37,6,1.09,11.91,1.63,17.86.07.85,0,1.7,0,3-.35-3.48-.58-6.58-1-9.66a305.85,305.85,0,0,1-2.23-37.66,164.41,164.41,0,0,1,1.56-27c.48-3.07,1.3-6.09,2-9.13Z" transform="translate(-752.74 -321.31)"/><path d="M1075.46,439.58c.32-.8.68-1,1.59-.55a5.15,5.15,0,0,0,3.09.56,15.28,15.28,0,0,0,8.22-4.8c1.93-2.28,3.53-4.84,5.33-7.24.89-1.19,1.9-2.3,2.86-3.44l.33.23c-.54.83-1.12,1.65-1.61,2.51a19.12,19.12,0,0,0-1.51,2.91c-2.37,6.44-7.19,10.07-13.57,11.92a7.72,7.72,0,0,1-2.1.2c-1.2,0-2.23-.24-2.2-1.8,0-.18-.3-.36-.46-.55Z" transform="translate(-752.74 -321.31)"/><path d="M960.36,416.22l-.45-.74-3-5.62,0,0a4.34,4.34,0,0,1,1,.85c1.31,2.2,2.54,4.44,3.85,6.64,3,5.12,6.13,10.22,9.19,15.33,1,1.63,2,3.27,2.91,4.92,2.21,3.82,4.38,7.66,6.6,11.48,2.68,4.6,5.32,9.22,8.11,13.74a54.76,54.76,0,0,1,5.32,10.77c.9,2.6,1.92,5.17,2.86,7.76a2.2,2.2,0,0,1,0,1.5,4.14,4.14,0,0,1-.39-.68c-1.23-3.35-2.22-6.81-3.72-10-1.88-4-4.17-7.89-6.3-11.8-1-1.81-2-3.58-3.08-5.37-3.15-5.49-6.28-11-9.45-16.47-2.56-4.43-5.13-8.86-7.77-13.25C964.18,422.22,962.25,419.24,960.36,416.22Z" transform="translate(-752.74 -321.31)"/><path d="M1104.69,364.94a42.3,42.3,0,0,0,6-3.75,18,18,0,0,0,3.5-4.78c1.15-2,2-4.19,3-6.29l.46.2c-1.09,3.11-1.86,6.4-3.38,9.29-1.61,3.08-4.56,5-7.88,6.19a2.79,2.79,0,0,1-1.34.15,3.08,3.08,0,0,0-2.88.88,2.79,2.79,0,0,1-.78.34c1-2,2.47-3.8,3-5.84s.11-4.47.37-6.7c2.1,3.37,1.48,6.66-.39,9.92Z" transform="translate(-752.74 -321.31)"/><path d="M1100.44,411.75c-1.4,2.4-2.79,4.6-4,6.88a20.13,20.13,0,0,1-13.4,10.6c-.46.12-1.41-.18-1.51-.48a1.23,1.23,0,0,1,1-1.77,17.4,17.4,0,0,0,10.1-5.64,42.48,42.48,0,0,0,2.89-3.85c1.15-1.53,2.31-3.05,3.5-4.53A11.12,11.12,0,0,1,1100.44,411.75Z" transform="translate(-752.74 -321.31)"/><path d="M1086.41,405.42c-.22-1.13,0-1.48,1.37-1.54a13,13,0,0,0,5-1.32,16.46,16.46,0,0,0,7-6.06,67.65,67.65,0,0,1,4.48-5.85,2.19,2.19,0,0,1,1.11-.67c-2,3.3-3.75,6.77-6,9.84s-5.94,4.94-9.78,5.89a9.65,9.65,0,0,1-3.15-.33Z" transform="translate(-752.74 -321.31)"/><path d="M1085.12,416.3a29,29,0,0,1,2.56-1.75c3.66-1.92,6.9-4.18,9-8a62.76,62.76,0,0,1,5-6.75l.41.26a3,3,0,0,1-.38.8c-1.54,1.78-2.31,4-3.28,6.05-2.43,5.22-6.68,8.43-12.12,10.15-.6.18-1.42.5-1.17-.75Z" transform="translate(-752.74 -321.31)"/><path d="M1078.08,463.73c-.14-1.26,0-2.06,1.29-2.56a19.12,19.12,0,0,0,9.4-7.7c1.52-2.33,3.38-4.44,5.09-6.65l.41.27c-.15.26-.28.52-.44.77-1.62,2.69-3.19,5.41-4.87,8.07-2.32,3.66-5.76,5.95-9.67,7.61A5.69,5.69,0,0,1,1078.08,463.73Z" transform="translate(-752.74 -321.31)"/><path d="M1073.57,419.05c-.23-.06-.65-.05-.83-.26a2.11,2.11,0,0,1-.61-1.19c-.07-2-1.47-3-2.79-4.12-4.07-3.59-5.43-8.19-4.58-13.49.21-1.36.44-2.72.66-4.07h.41c0,.51.1,1,.12,1.54.12,2.67.16,5.34.37,8a10.87,10.87,0,0,0,3.66,7.24c1.14,1.05,1.6.93,2.08-.57.25-.76.48-1.53.73-2.3a4.6,4.6,0,0,1,.31-.57,29,29,0,0,0-.58,4.85A31.75,31.75,0,0,0,1073.57,419.05Z" transform="translate(-752.74 -321.31)"/><path d="M1044.08,433.57c-1,1.41-2.12,1.07-3.25.53a11.11,11.11,0,0,1-4.58-4.48,15.69,15.69,0,0,1-2.24-8.39,22,22,0,0,1,.77,2.29,16.57,16.57,0,0,0,3.64,7.7,20.81,20.81,0,0,0,2.83,2.24l.34-.33a5.75,5.75,0,0,0-.25-.95,19.56,19.56,0,0,1-1.61-8.09,2.91,2.91,0,0,0-.92-2c-3.43-2.83-5.88-7.9-5.73-11.68.58,1.5,1.08,2.9,1.65,4.27a16.77,16.77,0,0,0,1.94,4.22c.85,1.06,1.5,2.8,3.4,2.55C1039.87,425.9,1039.89,430.37,1044.08,433.57Z" transform="translate(-752.74 -321.31)"/><path d="M1030.9,378.61a63.78,63.78,0,0,0,2.12,6.25,29.11,29.11,0,0,0,3,4.82,8.29,8.29,0,0,0,1.89,1.36c-.14,4.24.11,8.53,4.07,11.6a1.55,1.55,0,0,1-2.23.88,13.31,13.31,0,0,1-3.72-2.46,14.87,14.87,0,0,1-4.07-11.12c1.37,5.05,2.4,10.06,7.33,12.61l.56-.33a8,8,0,0,1-1-2c-.46-2.31-.87-4.63-1.12-7a2.92,2.92,0,0,0-1.09-2.27C1032.74,387.8,1031.34,383.41,1030.9,378.61Z" transform="translate(-752.74 -321.31)"/><path d="M1095.15,384.67c-.44.53-.9,1-1.3,1.58-1.07,1.44-2.33,2.53-4.38,2.3a3.53,3.53,0,0,1,.72-.58,6.5,6.5,0,0,0,4-5.89,28.58,28.58,0,0,1,.16-4.05,6.59,6.59,0,0,1,1.44-3.13c2.2-2.34,3-5.18,3.49-8.2a19.55,19.55,0,0,1,.69-2.34l.7.11c-.17,1.63-.32,3.27-.54,4.89a16.44,16.44,0,0,1-.54,2l0-.05c-1.3,1.63-2.62,3.24-3.88,4.89a1.49,1.49,0,0,0-.28,1.08,16,16,0,0,1-.42,7.41Z" transform="translate(-752.74 -321.31)"/><path d="M1036.91,338.12a146.93,146.93,0,0,1,3.56,24.84c-1.14-1-2.24-2-3.3-3a5,5,0,0,1-1.16-1.37c-1.49-3.09-2.86-6.24-2.19-10,.46,2.25.88,4.34,1.3,6.43a9.77,9.77,0,0,0,2.92,5.17,14.27,14.27,0,0,0,1.59,1.07c0-1.87.1-3.35,0-4.8a30.3,30.3,0,0,0-.78-4.73,17.78,17.78,0,0,0-1.48-4.08,12.79,12.79,0,0,1-1-7.93c.06-.5.09-1,.14-1.5Zm.4,2.1-.81.13q.6,3.28,1.21,6.57l.51-.08C1037.92,344.63,1037.61,342.43,1037.31,340.22Z" transform="translate(-752.74 -321.31)"/><path d="M1075.43,439.53V443H1075c-.1-1.12-.21-2.24-.31-3.36a17.92,17.92,0,0,1-.07-3.44l.33.89a8.22,8.22,0,0,0,4.62-8.83c-.21-1.58-.77-3.11-1-4.69a11,11,0,0,1,.11-2.35l.65-.07c.5,1.59,1.33,3.16,1.43,4.78a31.27,31.27,0,0,1-.43,7.16,6.7,6.7,0,0,1-4.23,4.95c-.75.33-1,.74-.57,1.5Z" transform="translate(-752.74 -321.31)"/><path d="M1085.5,580.76q3.6-6.35,7.2-12.69c.87-1.52,1.79-3,2.7-4.52,2.33-3.82,4.49-7.75,7-11.42,3.33-4.77,7-9.32,10.48-14a2.49,2.49,0,0,1,1-.69C1103,551,1094.24,565.86,1085.85,581Z" transform="translate(-752.74 -321.31)"/><path d="M1045.12,387c2.94,4.84,4.8,9.74.71,14.9,2.09,1.24,3.68.11,5.25-1.06l.42.19c-.11.58,0,1.47-.37,1.66a29.07,29.07,0,0,1-3.74,1.65,14.35,14.35,0,0,1-1.38.42,18.4,18.4,0,0,1-.68-2.52,2.45,2.45,0,0,1,.28-1.7c1.54-2,1.53-4.34,1.17-6.65-.28-1.73-.89-3.4-1.33-5.11C1045.3,388.19,1045.23,387.58,1045.12,387Z" transform="translate(-752.74 -321.31)"/><path d="M1078.58,474.13c.34-.67.5-1.55,1-2a25.44,25.44,0,0,0,6.67-7.63,50.62,50.62,0,0,1,4.25-5.6l.48.36c-.34.47-.7.92-1,1.4a15.21,15.21,0,0,0-1.8,3.07,19.34,19.34,0,0,1-8,10.21,7.05,7.05,0,0,1-1,.51Z" transform="translate(-752.74 -321.31)"/><path d="M1075.31,398.82v7c-.76-.66-1.49-1.22-2.14-1.86a18.14,18.14,0,0,1-3.17-3.34c-1.75-2.95-2.78-6.16-1.79-9.66.43-1.54,1-3.05,1.49-4.77a36.69,36.69,0,0,0-.26,4.44,43.91,43.91,0,0,0,.79,8c.34,1.42,1.69,2.65,2.73,3.84.69.79,1.33.52,1.57-.53S1075,400.05,1075.31,398.82Z" transform="translate(-752.74 -321.31)"/><path d="M1085.12,416.3l0,.05c-1.38,1.06-2.73,2.16-4.15,3.18a4.33,4.33,0,0,1-1.35.38l-.27-.41c.33-.32.6-.79,1-.95,3.5-1.43,4.75-4.37,5-7.77a48.11,48.11,0,0,0-.32-6.33c-.09-1.81-.17-3.61-.16-5.41.52,2.13,1.05,4.25,1.57,6.38l0,0c.09.9.16,1.79.25,2.69A16.77,16.77,0,0,1,1085.12,416.3Z" transform="translate(-752.74 -321.31)"/><path d="M1047.25,371.54l0,0c.12-.38.17-1,.39-1.1,4.06-1.22,5.74-4.39,6.86-8.09a58.44,58.44,0,0,1,2.31-6.29c-.93,3.76-.72,7.88-3.06,11.16a25.2,25.2,0,0,1-4.56,4.43C1048.79,371.92,1047.9,371.58,1047.25,371.54Z" transform="translate(-752.74 -321.31)"/><path d="M1051.66,433.34c.48.75.23,1.36-.74,1.72l-2.09.73c-.26-2.36-.56-5-.85-7.61l.22-.06.51,1.39c.82-3.75-.08-6.95-1.3-10.11-.21-.54-.33-1.1-.49-1.65l.5-.18a12.57,12.57,0,0,1,.93,1.78c.64,1.84,1.3,3.69,1.79,5.58s-.28,3.84-.84,5.72a14.59,14.59,0,0,0-.32,2.4Z" transform="translate(-752.74 -321.31)"/><path d="M1090.94,470.82c-2.44,3.3-4.8,6.67-7.35,9.89a22.86,22.86,0,0,1-3.62,3c-.44-1.1-.31-1.81.46-2.3,3.33-2.15,5.33-5.54,7.87-8.42.74-.84,1.6-1.57,2.4-2.35Z" transform="translate(-752.74 -321.31)"/><path d="M1038.63,380.9l.62-3.42c.52,2.5,1.08,5.14,1.63,7.75,0,0-.12,0-.13,0-1.1-3.36-5-4.5-6.22-7.74a53.57,53.57,0,0,1-2-5.75,18.65,18.65,0,0,1-.27-4.18C1033.29,372.36,1033.78,377.42,1038.63,380.9Z" transform="translate(-752.74 -321.31)"/><path d="M1081,449.43c4.53-1.77,7-5.74,9.85-9.22a14.29,14.29,0,0,1,2.65-2.56c-3,3.31-4,8.15-7.88,10.74-1.24.83-2.93,1-4.42,1.45Z" transform="translate(-752.74 -321.31)"/><path d="M1085.48,357.82c-.33,1-.64,2-1,2.95-1.09,3-1.42,7.51,1.25,9.61l1.08-.9c-1.27,2.46-.83,5.07-.6,7.66a3.76,3.76,0,0,1-.86-3.82,3.1,3.1,0,0,0-.75-2.88c-2-2.6-1.87-5.66-1.28-8.65a24.53,24.53,0,0,1,1.61-4.15Z" transform="translate(-752.74 -321.31)"/><path d="M1093,361.11l1.22-1.4-.51,3.49a10.41,10.41,0,0,1-1.25-13.94,10.53,10.53,0,0,1,1.44-1.75c-.52,1.23-1.07,2.45-1.55,3.69-1.07,2.72-1.68,5.49-.52,8.33A8.66,8.66,0,0,0,1093,361.11Z" transform="translate(-752.74 -321.31)"/><path d="M1055.45,380.66c1.31,2.33-1.42,8.55-5.18,11.33.17-1,0-1.9.43-2.28a16.83,16.83,0,0,0,4.41-8.58C1055.14,381,1055.31,380.84,1055.45,380.66Z" transform="translate(-752.74 -321.31)"/><path d="M1032.78,359.14c1,4.44,1.42,9,5.8,12.44l.35-3.32,1.41,5.17a10.82,10.82,0,0,1-6.46-6.94C1033.13,364.16,1033.12,361.6,1032.78,359.14Z" transform="translate(-752.74 -321.31)"/><path d="M1052.26,400.65a8.28,8.28,0,0,1,.27-1.88c.64-1.66,1.44-3.27,2.07-4.93.51-1.37.88-2.8,1.43-4.16C1056.92,392.88,1055,398.63,1052.26,400.65Z" transform="translate(-752.74 -321.31)"/><path d="M986.49,466.12c4,7.12,6.62,14.8,8.94,22.62C992.46,481.22,989.48,473.7,986.49,466.12Z" transform="translate(-752.74 -321.31)"/><path d="M1040.89,443.06q-.72,12.45-1.45,24.89c-.59-8.35.79-16.6,1-24.91Z" transform="translate(-752.74 -321.31)"/><path d="M1069.14,452.11c-4.27-2-5.22-5.11-2.74-9.27,0,1.75-.08,3.38,0,5,.06.78.43,1.37,1.58,1.29C1069.79,449,1070.16,450.36,1069.14,452.11Z" transform="translate(-752.74 -321.31)"/><path d="M1081.72,380.83h2.37c-.09.48-.26,1.21-.36,1.95-.33,2.32,0,4.39,2.11,5.88.3.22.37.76.55,1.15a3.59,3.59,0,0,1-1.3-.19c-1.72-1-2.09-2.71-2.13-4.53,0-1.33.3-2.74-1.18-3.62C1081.65,381.4,1081.73,381,1081.72,380.83Z" transform="translate(-752.74 -321.31)"/><path d="M1056.26,416.18c.73,1.61-1.27,5.16-3.93,6.47.05-.79-.15-1.56.15-2C1053.64,419.14,1055,417.72,1056.26,416.18Z" transform="translate(-752.74 -321.31)"/><path d="M1038.3,331c-.41,7.23,1.37,10.59,3,10.38a21.93,21.93,0,0,0,.22,3.15,17,17,0,0,0,1,2.67l-.58.24a6.3,6.3,0,0,1-.71-1.9,8.82,8.82,0,0,0-2-5c-1.49-2.06-1.47-4.65-1.31-7.15C1038,332.57,1038.19,331.79,1038.3,331Z" transform="translate(-752.74 -321.31)"/><path d="M1042,321.31a37.22,37.22,0,0,0-.22,5.77,18.42,18.42,0,0,0,1.46,4.53c.1.25.69.31,1.24.52l.43,2.14C1041.43,332.18,1040.19,326.71,1042,321.31Z" transform="translate(-752.74 -321.31)"/><path d="M1033.1,623.53l5.73-18.92.32.09q-2.81,9.46-5.6,18.94Z" transform="translate(-752.74 -321.31)"/><path d="M1049.51,440.84a29.36,29.36,0,0,1,3,.17c.4.06.74.46,1.1.7-.23.33-.41.87-.7,1-1,.28-2.12.4-3.35.61Z" transform="translate(-752.74 -321.31)"/><path d="M1001.56,506.7c-.72-2.89-1.45-5.78-2.12-8.68,0-.14.37-.37.77-.74.73,3.27,1.75,6.26,1.93,9.39Z" transform="translate(-752.74 -321.31)"/><path d="M1060.2,443.67a9.76,9.76,0,0,1-1.06-1.36,7.49,7.49,0,0,1-.58-1.71c-.45-1.74-.88-3.5-1.31-5.25l.45-.15,2.76,8.24Z" transform="translate(-752.74 -321.31)"/><path d="M1002.88,504.9l-2.55-10,.55-.15q1.36,5,2.72,9.94Z" transform="translate(-752.74 -321.31)"/><path d="M1112.47,343.06c-.15,3.1.77,6.31-.57,9.26l-.64-.07C1111.66,349.19,1112.07,346.13,1112.47,343.06Z" transform="translate(-752.74 -321.31)"/><path d="M1040.56,351.39l.82-.34c.37,2.68.84,5.25,3.39,6.78l-.14.48c-.41-.07-1,0-1.19-.25a22.25,22.25,0,0,1-2-3.45A23.29,23.29,0,0,1,1040.56,351.39Z" transform="translate(-752.74 -321.31)"/><path d="M1057.31,414.23c-1-2.79,1.4-4.73,1.64-7.2l.36.09-1.45,7.2Z" transform="translate(-752.74 -321.31)"/><path d="M1057.14,399.47c-.64,2.48-1.27,4.95-1.9,7.43C1054.25,405.53,1055.15,402.4,1057.14,399.47Z" transform="translate(-752.74 -321.31)"/><path d="M1156.12,489.76l8.25-8.24.24.24-8.41,8.07Z" transform="translate(-752.74 -321.31)"/><path d="M978.84,454l-6-10.72.3-.19q3,5.36,6,10.71Z" transform="translate(-752.74 -321.31)"/><path d="M1040.89,441.83a14.92,14.92,0,0,1-4.92-7.92C1037.62,436.56,1039.35,439.34,1040.89,441.83Z" transform="translate(-752.74 -321.31)"/><path d="M1056.11,429.76c-1-2.44,1-4.08,1-6C1057,425.67,1057.68,427.71,1056.11,429.76Z" transform="translate(-752.74 -321.31)"/><path class="cls-1" d="M1044.85,584.4l1.21-3.48.43.09-1.11,6.25,0,0c-1.68-.57-.89-1.66-.56-2.65A.22.22,0,0,1,1044.85,584.4Z" transform="translate(-752.74 -321.31)"/><path d="M1046.31,410v6.69C1046.22,414.56,1044.38,412.49,1046.31,410Z" transform="translate(-752.74 -321.31)"/><path d="M1071.77,455.28l-1.38-5.42.64-.16q.71,2.71,1.42,5.43Z" transform="translate(-752.74 -321.31)"/><path d="M1053.37,433.12c-.51-1.27-.31-1.77,1.14-2.87C1055.36,431.34,1055.15,431.86,1053.37,433.12Z" transform="translate(-752.74 -321.31)"/><path d="M999.4,501.17l1.68,6.38-.31.09q-1-3.15-2-6.3Z" transform="translate(-752.74 -321.31)"/><path d="M1077.11,415.1l1.13,5.1-.6.11-1-5.15Z" transform="translate(-752.74 -321.31)"/><path d="M1102.72,351.59l1.83-5.64.39.12-1.73,5.66Z" transform="translate(-752.74 -321.31)"/><path d="M1057.39,437.89c-.35.72-.68,1.46-1.09,2.15-.06.11-.58.09-.73-.05a.76.76,0,0,1-.11-.75,18.19,18.19,0,0,1,1.34-1.59Z" transform="translate(-752.74 -321.31)"/><path d="M1048.29,392.92c-.23-1-.39-1.86.91-2.2C1050,392.26,1049.82,392.6,1048.29,392.92Z" transform="translate(-752.74 -321.31)"/><path d="M1073.62,604l.75,5-.72.06v-5Z" transform="translate(-752.74 -321.31)"/><path d="M1047.49,414.68c-.3-.72-.6-1.09-.52-1.32a4.47,4.47,0,0,1,.78-1.05c.27.25.79.56.74.72A8.35,8.35,0,0,1,1047.49,414.68Z" transform="translate(-752.74 -321.31)"/><path d="M1140,510.55l-3.88,4.31-.27-.24q2-2.14,3.92-4.28Z" transform="translate(-752.74 -321.31)"/><path d="M1075.21,463.23l.83-1.2a3.57,3.57,0,0,1,.59,1.19c0,.31-.36.66-.57,1Z" transform="translate(-752.74 -321.31)"/><path d="M1034.8,404.32l1.91,3.73C1035.38,407.18,1035.05,405.75,1034.8,404.32Z" transform="translate(-752.74 -321.31)"/><path d="M956.92,409.86,954,405.2l.56-.29,2.35,5Z" transform="translate(-752.74 -321.31)"/><path d="M1128.37,522.54l3.77-3.53h0l-3.55,3.77Z" transform="translate(-752.74 -321.31)"/><path d="M1073.5,449.83l-.7,3.06C1072.38,451.73,1071.92,450.55,1073.5,449.83Z" transform="translate(-752.74 -321.31)"/><path d="M1051.65,410.14l1.76-1.84C1054.07,409.66,1053.88,409.87,1051.65,410.14Z" transform="translate(-752.74 -321.31)"/><path class="cls-1" d="M1044.17,444.64v6.62h.3A24.28,24.28,0,0,0,1045,447c-.07-1.77.68-2.44,2.54-2.54.12,1,.31,2,.36,3.06.25,4.93.59,9.86.66,14.8.22,15.77.59,31.54.43,47.31-.18,17.58-.88,35.17-1.35,52.75,0,.39-.11.77-.23,1.66a7.46,7.46,0,0,1-.88-1.3c-1.23-4-2.37-8-3.65-12-1.21-3.76-2.56-7.48-3.83-11.23-.29-.86-.48-1.75-.77-2.61q-1.85-5.5-3.74-11a15.55,15.55,0,0,0-.92-1.88c-1.62-3.2-.84-6.21.66-9.19a11.73,11.73,0,0,0,.69-2.15c1.34-4.63,2.75-9.24,4-13.9,1-3.73,1.68-7.55,2.75-11.26,1.82-6.38,1.61-12.95,2.07-19.46.31-4.43.44-8.86.63-13.29a2.11,2.11,0,0,0-.56-1.52c-.16,2.85-.33,5.71-.49,8.56-.31,5.49-.31,11-1,16.44s-2.14,11-3.26,16.54c-.21,1-.44,2.08-.72,3.09-1.22,4.31-2.41,8.63-3.72,12.91a48.49,48.49,0,0,1-2.8,7.09,3.41,3.41,0,0,1-.12-1.21c1.6-5.45,3.28-10.87,4.85-16.33.85-2.94,1.43-6,2.34-8.87,2.17-7,2.37-14.17,2.87-21.34.47-6.67,1-13.35,1.4-20,.12-1.85.18-3.7.27-5.56Z" transform="translate(-752.74 -321.31)"/><path class="cls-1" d="M1021.15,501c1.09,2.46,2.07,4.48,2.89,6.57,1.43,3.65,2.78,7.33,4.11,11q2.89,8,5.69,16c.89,2.55,1.74,5.13,2.56,7.71q2.68,8.55,5.33,17.11c.92,3,1.77,6.07,2.67,9.1.4,1.36,1.32,2.57.8,4.17-1.16,3.51-2.2,7.07-3.28,10.61-.22.72-.43,1.45-.64,2.18-1.33,4.47-2.61,9-4,13.43-1.7,5.36-3.5,10.68-5.29,16-.44,1.3-1,2.54-1.53,3.81l-.41-.07c0-.57-.09-1.13-.09-1.7,0-7.41.06-14.83-.1-22.24-.19-9.06-.39-18.14-1-27.19-.54-8.68-1.55-17.33-2.36-26a3,3,0,0,0-.15-.73,5.44,5.44,0,0,1,.2-4.61c1.08-2.2,1.8-4.57,2.69-6.86.08-.22.22-.42.75-.71l6.9,19.17.21-.07-3.06-8.87c-.1-.29-.25-.55-.34-.84-1.49-4.38-2.84-8.81-4.47-13.14-1.89-5-4-10-6-14.94-.85-2.1-1.77-4.17-2.48-6.32C1020.52,502.93,1021,502.07,1021.15,501Z" transform="translate(-752.74 -321.31)"/><path class="cls-1" d="M1022.07,497.06c.74,1.58,1.58,3.13,2.21,4.75,2.26,5.75,4.49,11.51,6.65,17.3q2.86,7.7,5.56,15.45c1.79,5.18,3.49,10.38,5.19,15.58,1.57,4.82,3.14,9.64,4.61,14.49a15,15,0,0,1,.26,3.24l-.59.08c-1-3.49-2.06-7-3.17-10.47-1.79-5.64-3.6-11.28-5.48-16.9q-2.41-7.2-5-14.34c-1.82-5-3.68-10-5.62-14.93-1.51-3.87-3.2-7.67-4.73-11.53a11.8,11.8,0,0,1-.38-2.69Z" transform="translate(-752.74 -321.31)"/><path class="cls-1" d="M1024.77,527.82c-1.73-7.18-3.39-14-5-20.8-.09-.41.26-.92.53-1.76a13.35,13.35,0,0,1,1.18,1.83c1.46,3.63,2.88,7.27,4.33,10.91a12.54,12.54,0,0,0,.7,1.48,3.39,3.39,0,0,1,.27,3.29C1026.08,524.34,1025.5,526,1024.77,527.82Z" transform="translate(-752.74 -321.31)"/><path class="cls-1" d="M1019.11,504.76a6.85,6.85,0,0,1-.24-1.82c.56-4.5,1.31-9,1.75-13.48.5-5,.89-10.1,1-15.16a77.85,77.85,0,0,0-.52-9.64c-.18-1.94-.69-3.85-1-5.77a2.3,2.3,0,0,1,1.28-2.75,152.11,152.11,0,0,1-1.86,48.58Z" transform="translate(-752.74 -321.31)"/><path class="cls-1" d="M1015.57,440a23.7,23.7,0,0,1,2.3,2.93,19.51,19.51,0,0,1,1.21,3.26l.58-.13-.31-2.82.3-.1a37.31,37.31,0,0,1,1.53,5.07,3.65,3.65,0,0,1-1,2.51c-1.11,1.3-2.33,1.06-3-.51a60.37,60.37,0,0,1-2.48-6.29,12.3,12.3,0,0,1-.06-3.49Z" transform="translate(-752.74 -321.31)"/><path class="cls-1" d="M1019.47,441.72c-1.4-.81-2.72-1.52-4-2.34a1.58,1.58,0,0,1-.6-1.26c.05-.37.59-.67.91-1s1-.81,1-1.18c-.15-2.25,2.11-2.84,2.71-4.72C1021.74,435.14,1022.63,438.35,1019.47,441.72Z" transform="translate(-752.74 -321.31)"/><path class="cls-1" d="M1007.43,413.72c1-2.7,1.39-5.77,3.72-8,1.8,2.42,2,7.33.57,9.64-.57.92-1.17.79-1.87.26S1008.36,414.45,1007.43,413.72Z" transform="translate(-752.74 -321.31)"/><path class="cls-1" d="M1003.93,411.85c-1.88.58-2.55-.48-3.31-1.58-1.39-2-1.47-4.15-1.06-6.69l1,1.36-.22-2C1003.52,405.4,1003,408.89,1003.93,411.85Z" transform="translate(-752.74 -321.31)"/><path class="cls-1" d="M1003,391.54c2.63,4,4,5.61,1.22,9-1-1.49-2-2.92-2.88-4.47C1000.62,394.78,1001.39,392.91,1003,391.54Z" transform="translate(-752.74 -321.31)"/><path class="cls-1" d="M1007.29,416c1.29.57,2.45,1,2.38,2.64,0,.67.65,1.37,1.36,2v-2.4a8.11,8.11,0,0,1,1.42,5.55,3,3,0,0,1-.93,1.5c-.65.65-1.29.52-1.63-.37s-.53-1.63-.79-2.44c-.52-1.62-1.05-3.24-1.54-4.87A13.71,13.71,0,0,1,1007.29,416Z" transform="translate(-752.74 -321.31)"/><path class="cls-1" d="M1011.18,441.73l.26-1.46c.74,1,.84,3.69.13,4.25a2.21,2.21,0,0,1-1.53.27c-2-.33-4.5-3.32-4.43-5.34,0-.34.65-1,.77-.95.56.24,1.32.56,1.51,1.05A3.26,3.26,0,0,0,1011.18,441.73Z" transform="translate(-752.74 -321.31)"/><path class="cls-1" d="M1003.88,415.88l-1,3.4c-1.06-.32-2.41-.35-3.12-1a20.84,20.84,0,0,1-2.95-4.24c-.11-.18.53-1.14.7-1.11.59.12,1.47.39,1.64.82A3.56,3.56,0,0,0,1003.88,415.88Z" transform="translate(-752.74 -321.31)"/><path class="cls-1" d="M1000.18,391.94c-1.94-1.56-2.77-8-1.31-9.69C1001.41,384.15,1002.09,388.83,1000.18,391.94Z" transform="translate(-752.74 -321.31)"/><path class="cls-1" d="M1007,399.86c2.43,3.63,2.49,6.17.18,8.45-.83-1.3-1.67-2.57-2.45-3.89a1.17,1.17,0,0,1,0-1C1005.38,402.24,1006.16,401.09,1007,399.86Z" transform="translate(-752.74 -321.31)"/><path class="cls-1" d="M1006.59,428.22a6.33,6.33,0,0,1-1.7.21,5.9,5.9,0,0,1-4.53-4.86c-.12-1.14.63-1.43,1.46-1.46s1.58,0,1.53,1.3c0,.6.7,1.28,1.19,1.84.73.83,1.54,1.59,2.32,2.37Z" transform="translate(-752.74 -321.31)"/><path class="cls-1" d="M1015.64,453.52c-3.46,1-7.08-1.81-6.72-4.67.05-.46,1-1,1.57-1.14s1.56.18,1.29,1.17.53,1.36,1.1,1.89C1013.74,451.58,1014.56,452.43,1015.64,453.52Z" transform="translate(-752.74 -321.31)"/><path class="cls-1" d="M989.32,369.32c.24,0,.55-.15.71-.05,2,1.29,3.23,5.48,2.21,7.69-1.32-.39-4.06-3.26-3.94-4.47a14.08,14.08,0,0,1,1.07-3.21Z" transform="translate(-752.74 -321.31)"/><path class="cls-1" d="M1016.62,457.35a2.22,2.22,0,0,1,.87,2.73c-.5,1.16-1.5,1.05-2.69.8-2.29-.49-3.38-2-4-4-.13-.38.22-.92.35-1.38.45.28.92.54,1.34.86a22.32,22.32,0,0,0,2.61,2C1015.31,458.45,1016,457.75,1016.62,457.35Z" transform="translate(-752.74 -321.31)"/><path class="cls-1" d="M1022.31,441.63c2.09,3.51,3.69,6.17.34,9.89-.15-1.26-.26-2.43-.44-3.58a6.1,6.1,0,0,0-.57-2.33C1020.63,444,1021.35,442.85,1022.31,441.63Z" transform="translate(-752.74 -321.31)"/><path class="cls-1" d="M988.13,384.65c-.14,1.11.09,2.49-.47,3-1,.87-2.07-.1-2.87-.84a9,9,0,0,1-1.91-2.36,1.45,1.45,0,0,1,.94-2.16,8.37,8.37,0,0,1,1.25-.24,9.62,9.62,0,0,1,.13,1.19C985.17,384.27,986.52,385.06,988.13,384.65Z" transform="translate(-752.74 -321.31)"/><path class="cls-1" d="M1013.85,416c2.74,4.42,2.81,6.81.31,9.79-.17-1.35-.25-2.62-.51-3.87a7.76,7.76,0,0,0-.95-2.46C1011.7,417.85,1013.1,417.15,1013.85,416Z" transform="translate(-752.74 -321.31)"/><path class="cls-1" d="M1009.36,436.67c-2.3,0-5.16-2.6-5.33-4.63,0-.34.48-1,.64-1,.51.08,1.35.39,1.39.7.21,1.46,1.28,1.77,2.38,2.2a4.65,4.65,0,0,1,1.55,1c.26.27.48.93.33,1.17S1009.52,436.58,1009.36,436.67Z" transform="translate(-752.74 -321.31)"/><path class="cls-1" d="M990.48,397.15c.84.53,1.68,1.06,2.53,1.57a15.93,15.93,0,0,0,1.58.84c.8.36,1.71,2.08,1.19,2.4a2.71,2.71,0,0,1-2.16.17C991.63,401.3,990.09,400,990.48,397.15Z" transform="translate(-752.74 -321.31)"/><path class="cls-1" d="M977.16,374.72c1.8.6,2.49,3.39,5.15,2.19a1.8,1.8,0,0,1,.45,2.51c-.48.93-1.28.63-2.11.36C978.12,379,976.92,377.3,977.16,374.72Z" transform="translate(-752.74 -321.31)"/><path class="cls-1" d="M987.12,390.22c1.89.94,3.81,1.84,5.67,2.84.3.16.63.84.52,1.05a1.8,1.8,0,0,1-1.12.8C989.89,395.34,987.61,393.48,987.12,390.22Z" transform="translate(-752.74 -321.31)"/><path class="cls-1" d="M1001.06,401.73c-2.15-.18-4.22-3.24-4.8-7C998.82,395.18,1001.13,398.48,1001.06,401.73Z" transform="translate(-752.74 -321.31)"/><path class="cls-1" d="M1016.09,433.61c-.79-1.63-2.06-3.05-1.91-4.3s1.68-2.42,2.84-3.91C1017.57,428.31,1018.11,430.82,1016.09,433.61Z" transform="translate(-752.74 -321.31)"/><path class="cls-1" d="M987.59,374.86l2.55,3,.07-1.64c.18.11.33.16.4.26a14.16,14.16,0,0,1,1.53,2.22c.43.94.57,2.07-.54,2.66s-1.79-.17-2.23-1.13c-.77-1.66-1.53-3.33-2.29-5Z" transform="translate(-752.74 -321.31)"/><path class="cls-1" d="M998.14,410.36a5.49,5.49,0,0,1-4.33-4,2.24,2.24,0,0,1,.36-1.5c.76,0,2-.05,2.22.37a40.06,40.06,0,0,1,1.82,5S998.16,410.32,998.14,410.36Z" transform="translate(-752.74 -321.31)"/><path class="cls-1" d="M1025.53,451.21c.51,2.69,1,5.24-.78,7.81-.73-1.27-1.45-2.42-2-3.62a1.36,1.36,0,0,1,.18-1.18C1023.67,453.22,1024.55,452.31,1025.53,451.21Z" transform="translate(-752.74 -321.31)"/><path class="cls-1" d="M990.64,383.15c2.38-.21,1.85,2.2,3.18,3.2V384.8c1.35,1.22,2,3.1,1.49,4.29a2.6,2.6,0,0,1-1.16,1c-.1.05-.66-.52-.82-.88C992.4,387.22,991.52,385.17,990.64,383.15Z" transform="translate(-752.74 -321.31)"/><path class="cls-1" d="M994.17,377c1.41,1.65,2.22,6.51,1.41,8-1.12-.63-2-1.23-1.75-2.86a26.35,26.35,0,0,0-.1-4.25C993.72,377.67,994,377.41,994.17,377Z" transform="translate(-752.74 -321.31)"/><path class="cls-1" d="M983,363.13c2.77,1.27,5.54,5.28,3.65,7.4A14.48,14.48,0,0,1,983,363.13Z" transform="translate(-752.74 -321.31)"/><path class="cls-1" d="M980,373.31a4.37,4.37,0,0,1-4.24-3.51c-.11-1,.32-1.61,1.29-1.64s1.29.39,1.07,1.37c-.07.3.25.7.43,1C979,371.49,979.52,372.4,980,373.31Z" transform="translate(-752.74 -321.31)"/><path class="cls-1" d="M975.43,361.25l4.12,6.12C976.39,367.21,974.78,364.77,975.43,361.25Z" transform="translate(-752.74 -321.31)"/><path class="cls-1" d="M1011.72,429.3c.23.16.59.27.67.48.33.86.22,2.09,1.8,1.78a5,5,0,0,1,.55,2c0,.48-.56,1-.88,1.44-.39-.31-1-.55-1.15-.94-.51-1.49-.87-3-1.29-4.55Z" transform="translate(-752.74 -321.31)"/><path class="cls-1" d="M1025.32,534.3l3.21-8.58c.65,1.13-1.53,7.73-2.66,8.77Z" transform="translate(-752.74 -321.31)"/><path class="cls-1" d="M997.16,387.56l1.65,5.24c-2,.37-2.37,0-2.22-1.57.11-1.17,0-2.37,0-3.56Z" transform="translate(-752.74 -321.31)"/><path class="cls-1" d="M1006.34,416.08c.94,2.76,1.87,5.52,2.81,8.29l-.38.12a16.1,16.1,0,0,1-2.83-8.29Z" transform="translate(-752.74 -321.31)"/><path class="cls-1" d="M1027.53,523.35c.17,2.64-1.26,4.79-2.3,7.07C1024.84,527.72,1026.66,525.68,1027.53,523.35Z" transform="translate(-752.74 -321.31)"/><path class="cls-1" d="M980.56,367.06c1.78.31,2,.6,3.05,4.88Z" transform="translate(-752.74 -321.31)"/><path class="cls-1" d="M1002,401.55l-1.08-4.22c.89,1.27,2.63,2.25,1.72,4.08Z" transform="translate(-752.74 -321.31)"/><path class="cls-1" d="M1016.5,450.12c-1.6-.53-2.56-2.71-2.34-5.1Z" transform="translate(-752.74 -321.31)"/><path class="cls-1" d="M1019,457.16v-3.09l2.1,1.28-.41-.27-1.44,2.29Z" transform="translate(-752.74 -321.31)"/><path class="cls-1" d="M982.55,374.37c-.65-1.31-2.07-2.24-1.87-3.95l.53-.27,2,4Z" transform="translate(-752.74 -321.31)"/><path class="cls-1" d="M1005.77,410.73l-1.41-4.57A3.67,3.67,0,0,1,1005.77,410.73Z" transform="translate(-752.74 -321.31)"/><path class="cls-1" d="M1006,420.06l1.62,4.31-.6.24-1.71-4.26Z" transform="translate(-752.74 -321.31)"/><path class="cls-1" d="M1010.59,430.13l1.08,3.78-.55.17-1.29-3.75Z" transform="translate(-752.74 -321.31)"/><path class="cls-1" d="M990.19,386.25l1.86,3.15C990.9,389.34,990.21,388.27,990.19,386.25Z" transform="translate(-752.74 -321.31)"/><path class="cls-1" d="M985.4,375.27l1.78,3.42-.46.23L985,375.43Z" transform="translate(-752.74 -321.31)"/><path class="cls-1" d="M1022.91,457l.41,2.8-.59.09-.34-2.84Z" transform="translate(-752.74 -321.31)"/><path class="cls-1" d="M1088.49,509.1c1.51-2.05,2.9-4.24,5.56-5a5.23,5.23,0,0,1-1.14,4.74c-1.2,1.6-2.48,3.14-3.8,4.64-.38.42-1.22,1-1.54.81-.7-.33-1.61-1-1.67-1.66a7.34,7.34,0,0,1,.63-3.45,9.49,9.49,0,0,1,2.2-2.72c-.2.82-.41,1.64-.62,2.47Z" transform="translate(-752.74 -321.31)"/><path class="cls-1" d="M1091.6,494.13c1.48.93,1.74,1.77,2.11,6.37l1.88,1.17c-1,.62-1.72,1.11-2.47,1.47s-1.79.68-2.64,1.09-1.46.27-1.68-.72c-.48-2.17-.58-4.25.94-6.16A23.25,23.25,0,0,0,1091.6,494.13Z" transform="translate(-752.74 -321.31)"/><path class="cls-1" d="M1107.52,470.67a5.43,5.43,0,0,1,.87,1.66c.26,2.08.44,4.17.51,6.27,0,.39-.51.91-.91,1.19a13,13,0,0,1-1.76.84c-1.33.67-1.68.52-2-.88A9.86,9.86,0,0,1,1107.52,470.67Z" transform="translate(-752.74 -321.31)"/><path class="cls-1" d="M1108.68,481.3c-1.08,1.91-2.07,3.71-3.11,5.47-.62,1-1.31,2-2,3-.78,1.14-1.49,1.1-2-.17-.8-1.81,0-3.36,1-4.81a26.83,26.83,0,0,1,2.19-2.6l-1.12,3.14C1105.55,484.25,1106,481.65,1108.68,481.3Z" transform="translate(-752.74 -321.31)"/><path class="cls-1" d="M1115.7,467.37c-1.23-3.66-.07-6.12,3.92-9.05.91,3.4,2,3.78-1.24,6.23A23.75,23.75,0,0,0,1115.7,467.37Z" transform="translate(-752.74 -321.31)"/><path class="cls-1" d="M1119.32,470.32l-1,1.66.19.19,1.17-.88A25.89,25.89,0,0,1,1119,474c-1.16,3.17-2.81,4.42-5.82,4.5C1113.39,476,1117.17,470.78,1119.32,470.32Z" transform="translate(-752.74 -321.31)"/><path class="cls-1" d="M1097.37,506.36a3.64,3.64,0,0,0,4.15-1.81c.54-1,1.39-.8,2.07-.4a1.56,1.56,0,0,1,.11,1.47c-1.55,2.2-3.52,3.82-6.38,3.87-.36,0-1-.43-1-.6a38.59,38.59,0,0,1,.73-3.95c0-.14.49-.19,1-.37Z" transform="translate(-752.74 -321.31)"/><path class="cls-1" d="M1113.4,465.42c.4,1.77,1.36,3.47.92,4.66-.57,1.59-2.24,2.79-3.47,4.19C1109.1,471.7,1109.84,469.08,1113.4,465.42Z" transform="translate(-752.74 -321.31)"/><path class="cls-1" d="M1112.17,482.72a4.21,4.21,0,0,0,5-1.75c.31-.38,1.24-.35,1.88-.33.14,0,.5,1,.34,1.19-1.48,2-3.06,3.91-5.78,4.19-1.81.18-2-.11-1.77-1.88C1111.92,483.7,1112.05,483.27,1112.17,482.72Z" transform="translate(-752.74 -321.31)"/><path class="cls-1" d="M1088,520.5c.57.54,1,1.26,1.32,1.2a9.49,9.49,0,0,0,2.55-1c.39-.21.63-.77,1-.9a1.37,1.37,0,0,1,1.22.25c.18.2,0,.87-.16,1.18a6.93,6.93,0,0,1-4.74,3.16c-1.2.2-2.64.21-3-1.22S1087,521,1088,520.5Z" transform="translate(-752.74 -321.31)"/><path class="cls-1" d="M1091.73,517.8l-1.15-.56a4.72,4.72,0,0,1,.78-1.29,13.9,13.9,0,0,1,1.89-1.17c.8-.48,2-.52,2-1.93a3.31,3.31,0,0,1,1.87-.35,1.08,1.08,0,0,1,.79,1.72A6.53,6.53,0,0,1,1091.73,517.8Z" transform="translate(-752.74 -321.31)"/><path class="cls-1" d="M1105.67,493.2l4.8-2.9-.2-.17c.33-.44.58-1.13,1-1.29a1.39,1.39,0,0,1,1.92,1.13c.23.89-1,2.81-2.13,3.42C1108.67,494.71,1107.24,494.76,1105.67,493.2Z" transform="translate(-752.74 -321.31)"/><path class="cls-1" d="M1122.6,459.66c-1.47-3.29.14-7.47,3.52-9.74.18,1.35.84,2.51,0,3.84C1125,455.6,1123.88,457.5,1122.6,459.66Z" transform="translate(-752.74 -321.31)"/><path class="cls-1" d="M1136.66,445.17l-2.29,1.37c-.88-2.18,1.3-5.77,4.29-7.39,1.11,3,.8,4.87-2.06,6Z" transform="translate(-752.74 -321.31)"/><path class="cls-1" d="M1086.4,503.91c1.29,1.17,1.19,2,.29,3.29a46.54,46.54,0,0,0-2.78,5.11,8.24,8.24,0,0,0-.42,1.2C1082,509.7,1082.86,506.86,1086.4,503.91Z" transform="translate(-752.74 -321.31)"/><path class="cls-1" d="M1136.43,458.18l-1.07-.8c.54-.67,0-2.07,1.64-2.07a2.86,2.86,0,0,0,2.09-1.41c.32-.66.43-1.2,1.24-1.09a2.24,2.24,0,0,1,1.38,2.14C1141.13,456.69,1138.93,458.16,1136.43,458.18Z" transform="translate(-752.74 -321.31)"/><path class="cls-1" d="M1098.91,489.63c-1.39-3.36-.51-6,3.12-9.35.61,1.33,1,2.42-.09,3.83A45.36,45.36,0,0,0,1098.91,489.63Z" transform="translate(-752.74 -321.31)"/><path class="cls-1" d="M1101.22,501.72l-1.35-.9c.58-.56,1.12-1.55,1.76-1.62a5.2,5.2,0,0,0,4-1.95c.2-.27,1-.06,1.6-.08a3.73,3.73,0,0,1-.13,1.36A7.69,7.69,0,0,1,1101.22,501.72Z" transform="translate(-752.74 -321.31)"/><path class="cls-1" d="M1135.78,460.76c-1,2.47-4,4.05-6.2,3.39-.51-.16-.88-.82-1.32-1.25.4-.32.75-.79,1.2-.93,1.48-.46,3-.85,4.51-1.19A9,9,0,0,1,1135.78,460.76Z" transform="translate(-752.74 -321.31)"/><path class="cls-1" d="M1144.1,448.37c2.25,1.94,3.48-1.17,5.49-.92,0,.29,0,.78-.17,1a22,22,0,0,1-3.69,3.15,3,3,0,0,1-2.48-.4C1142.18,450.49,1142.7,449.05,1144.1,448.37Z" transform="translate(-752.74 -321.31)"/><path class="cls-1" d="M1130.64,467c-1.07,3.25-5.19,5-7.08,3C1124.89,468.18,1128.55,466.57,1130.64,467Z" transform="translate(-752.74 -321.31)"/><path class="cls-1" d="M1136.66,445.17h-.06c-.15.68-.3,1.36-.53,2.44l3.2-2.47.37.37c-.34.49-.66,1-1,1.47a25.42,25.42,0,0,1-2.6,3.29c-.51.49-1.47.5-2.23.73a6.18,6.18,0,0,1-.41-2.05,3.49,3.49,0,0,1,1-1.57C1135.14,446.61,1135.91,445.9,1136.66,445.17Z" transform="translate(-752.74 -321.31)"/><path class="cls-1" d="M1096.27,489.24c.67,1.18,1.32,2.22,1.85,3.32a1.33,1.33,0,0,1-.11,1.2c-.86,1-1.82,1.95-2.74,2.92C1093.66,495.33,1094,492.76,1096.27,489.24Z" transform="translate(-752.74 -321.31)"/><path class="cls-1" d="M1119.05,477.63l3.24-4.49a6.23,6.23,0,0,1,1,0c.56.09,1.12.25,1.67.38a6.16,6.16,0,0,1-.6,1.77,5.83,5.83,0,0,1-4.83,2.74Z" transform="translate(-752.74 -321.31)"/><path class="cls-1" d="M1118.41,469c1.62-3.71,3.72-5.59,6.76-6.1C1124.46,465.82,1120.76,469.23,1118.41,469Z" transform="translate(-752.74 -321.31)"/><path class="cls-1" d="M1130.39,453.68,1130,455l.36.24a8.34,8.34,0,0,1,1.22-1.76,11,11,0,0,1,2.13-1.15c-.34,1.67-3.72,5.88-5.17,6.53C1127.16,457.29,1127.78,455.42,1130.39,453.68Z" transform="translate(-752.74 -321.31)"/><path class="cls-1" d="M1147,434.45c-1.33,2.94-2.93,5.2-5.65,6.53C1140.66,438.3,1143.14,436,1147,434.45Z" transform="translate(-752.74 -321.31)"/><path class="cls-1" d="M1128.36,453.7c-.16-3.35,2.48-5.17,3.53-7.75.46,1.1,1.09,2,0,3.13a4,4,0,0,0-1,2.29C1130.79,452.91,1129.76,453.26,1128.36,453.7Z" transform="translate(-752.74 -321.31)"/><path class="cls-1" d="M1147.22,445.43c.79-1,1.47-1.74,2.1-2.55.26-.32.39-.77.67-1.06s1-1,1.3-.94a1.75,1.75,0,0,1,1.14,1.21C1152.49,444.05,1149.54,446.05,1147.22,445.43Z" transform="translate(-752.74 -321.31)"/><path class="cls-1" d="M1155.12,434.46c-1.26,4.42-2.46,5.56-5.55,5.14C1151.05,437.36,1153.31,436.14,1155.12,434.46Z" transform="translate(-752.74 -321.31)"/><path class="cls-1" d="M1097.78,495.07l.42.75c1.22-.19.76-2.6,2.61-1.85-1,1.55-1.84,3.09-2.81,4.58-.18.29-.73.63-.93.54a1.54,1.54,0,0,1-.81-1A2.93,2.93,0,0,1,1097.78,495.07Z" transform="translate(-752.74 -321.31)"/><path class="cls-1" d="M1104.32,489.71l4.89-7.59.53.33c-.88,3-3.22,5.13-5,7.55Z" transform="translate(-752.74 -321.31)"/><path class="cls-1" d="M1126.56,455.74a36.17,36.17,0,0,1-1,4.56c-.15.43-1.21.55-1.85.82l-.41-.53,3.07-5Z" transform="translate(-752.74 -321.31)"/><path class="cls-1" d="M1143.87,442.69c1-1.56,1.86-3.22,3.79-3.78l.46.48-3.54,4.05Z" transform="translate(-752.74 -321.31)"/><path class="cls-1" d="M1086.69,516.46c-.33,1.36-.58,2.42-.9,3.74l-1.84-2.51Z" transform="translate(-752.74 -321.31)"/><path class="cls-1" d="M1109.26,486c-.34,1.9-1.92,2.87-3,4.19l-.47-.36,3.09-4.14Z" transform="translate(-752.74 -321.31)"/><path class="cls-1" d="M1090.19,513.3l3.38-4.38c0,1.76-1,3.23-3,4.65Z" transform="translate(-752.74 -321.31)"/><path class="cls-1" d="M1143.76,445.37l3-3.26.33.28a4.68,4.68,0,0,1-2.89,3.38Z" transform="translate(-752.74 -321.31)"/><path class="cls-1" d="M1111.53,477a4.2,4.2,0,0,1,2.22-4.46Z" transform="translate(-752.74 -321.31)"/><path class="cls-1" d="M1117.65,468.29c-.35-1.84.22-2.69,2-3.14Z" transform="translate(-752.74 -321.31)"/><path class="cls-1" d="M1101.89,495.49c-.64,1.05-1.28,2.1-1.91,3.15l-.67-.41,2.06-3.05Z" transform="translate(-752.74 -321.31)"/><path class="cls-1" d="M1134,456.49l-2.76,2.59-.74-.75,2.76-2.55Z" transform="translate(-752.74 -321.31)"/><path class="cls-1" d="M1138.8,448.94l2.57-3,.29.24-2.49,3Z" transform="translate(-752.74 -321.31)"/><path class="cls-1" d="M1009.55,566.81l-3.72,3.29a8.32,8.32,0,0,1,0-1.28c1.34-5.92,2.68-11.85,4.06-17.77.81-3.51,1.7-7,2.54-10.5.91-3.81,1.81-7.62,2.73-11.42a11.9,11.9,0,0,1,.58-1.35,9.61,9.61,0,0,1,.64,1.7c.54,3.74,1,7.48,1.57,11.22.14,1,.52,1.95.57,2.93a21.63,21.63,0,0,1-.27,3.22c.77,0,.63.62.3,1.37-1.69,3.8-3.34,7.62-5,11.43-.9,2.06-1.79,4.14-2.76,6.17-.18.38-.74.58-1.12.86A.25.25,0,0,1,1009.55,566.81Z" transform="translate(-752.74 -321.31)"/><path class="cls-1" d="M999.42,590.62c.33-1.85.68-3.7,1-5.55.5-2.88.91-5.78,1.48-8.64.91-4.58,1.9-9.15,2.91-13.72.78-3.48,1.62-6.94,2.46-10.41s1.77-7.22,2.66-10.83,1.72-7.12,2.63-10.67c.63-2.47,1.34-4.91,2-7.36l.45,0a14.29,14.29,0,0,1,0,3.07q-2.12,9.27-4.38,18.5c-1.66,6.73-3.43,13.44-5.11,20.16-.92,3.71-1.81,7.43-2.63,11.15-1,4.57-1.94,9.15-2.91,13.72,0,.22-.12.45-.18.67Z" transform="translate(-752.74 -321.31)"/><path class="cls-1" d="M1019.5,551.06c-.34,1.06-.58,2.16-1,3.17-1.08,2.49-2.25,4.92-3.36,7.39-1.33,3-2.43,6.09-4,8.94a45.08,45.08,0,0,1-4.75,6.33c-.44.53-1.32.7-2.38,1.23a10.53,10.53,0,0,1,.5-2.78c.25-.47,1.3-1.05,1.51-.9,1.29.93,1.9,0,2.42-.82a29.24,29.24,0,0,0,2.38-4.18c1.49-3.29,2.84-6.64,4.28-10,1.25-2.88,2.54-5.74,3.81-8.61Z" transform="translate(-752.74 -321.31)"/><path class="cls-1" d="M1009.55,566.81a.25.25,0,0,0,.12-.13c-.24,1-.22,2.22-.79,3a20.59,20.59,0,0,1-3.74,3.72c0-2,1.1-3.23,2.52-4.35A13.48,13.48,0,0,0,1009.55,566.81Z" transform="translate(-752.74 -321.31)"/><path class="cls-1" d="M1046.37,610.81c-1.16-5.73-3.3-11.24-3.88-17.1l.49-.12c.37,1.61.71,3.22,1.11,4.82.78,3.16,1.61,6.3,2.36,9.47a22.71,22.71,0,0,1,.33,2.87Z" transform="translate(-752.74 -321.31)"/><path class="cls-1" d="M1044.07,588.49c1.52,4.08,2.72,8.2,2.42,12.59C1046,596.8,1043.61,592.91,1044.07,588.49Z" transform="translate(-752.74 -321.31)"/><path class="cls-1" d="M1045.38,587.26l1-3.23.23,0v9.86l-.43,0-.78-6.75Z" transform="translate(-752.74 -321.31)"/><path class="cls-1" d="M1095.1,384.72a16,16,0,0,0,.42-7.41,1.49,1.49,0,0,1,.28-1.08c1.26-1.65,2.58-3.26,3.88-4.89a3.81,3.81,0,0,0,3.87,3.13,12.9,12.9,0,0,0,2.56-.15,18.85,18.85,0,0,0,2.39-.75,17,17,0,0,1-10.09,10.06C1097.33,384.05,1096.21,384.36,1095.1,384.72Z" transform="translate(-752.74 -321.31)"/><path class="cls-1" d="M1051.81,584.92v6.31h-.4v-6.3Z" transform="translate(-752.74 -321.31)"/><path class="cls-1" d="M1080.37,367.77v7.9h-.5C1079.26,373,1079.86,370.38,1080.37,367.77Z" transform="translate(-752.74 -321.31)"/><path class="cls-1" d="M1037.31,340.22c.3,2.21.61,4.41.91,6.62l-.51.08q-.62-3.29-1.21-6.57Z" transform="translate(-752.74 -321.31)"/><ellipse class="cls-2" cx="903.88" cy="570.36" rx="140.01" ry="146.82" transform="translate(-568.74 1039.04) rotate(-79.91)"/><path class="cls-3" d="M937,443.76l3.67.65c.46,1,2.11,1.51,1.6,3-1.65,4.84.13,9.87-.82,14.8-.72,3.69-2.16,7.16-2.89,10.74-1.87,9.11-3.07,18.36-4.33,27.59-.66,4.8-3.33,10-1.46,14.31s6.56,7.41,9.88,11.16c1.58,1.8,2.59,2.31,3.79-.24,1.58-3.34,4.52-4.88,8.28-5.08,1.48-.08,3-.15,4.45-.17,1.21,0,1.69-.84,2.12-1.7a1.5,1.5,0,0,0-.75-2.13c-2.86-1.66-2.92-4.31-2.54-7,.25-1.85.49-3.39-1.59-4.61a2.9,2.9,0,0,1-1.1-3.56c.53-1.23,2-.54,3-.47,1.9.13,3.4.13,4.73-1.73,2.07-2.88,5.2-3.39,8.59-2,3.91,1.61,6.52,4.93,6.22,8.16a17.93,17.93,0,0,1-3.13,9c-4.83,6.7-4.48,7.91,3.21,11.59,2.32,1.11,5.29,2,5.78,4.71a166.9,166.9,0,0,1,2.55,18.81c.28,4.22-1.46,5.36-5.82,5.58-1.7.09-3.65-.58-5.72,1.63l4.83.86c7.45,1.31,14.87,2.9,22.37,3.86,6.07.79,9.57,4.06,11.83,9.17,2.58,5.82,3.49,12,4.14,18.16.73,6.91-.11,13.79.13,20.69l-4.15,23.28c-.49,1.32-1.05,2.62-1.46,4-2.55,8.55-5.73,16.85-10.53,24.48-3.6,5.72-7.94,10.68-15,12.63l-31.55-5.61c-5.41-3.5-7.84-8.78-9.38-14.57a53.33,53.33,0,0,1-2-12.39c0-2.24-1-3-3.21-3.43-4.4-.76-8.77-1.72-13.1-2.77-2.18-.53-3.3-.21-4.16,2a57.24,57.24,0,0,1-7.15,13.23c-3.11,4.28-6.82,7.73-12.4,8.77l-27.15-4.83c-5-3-7.27-7.67-8.67-12.89A62.31,62.31,0,0,1,866,625.15c0-1.85-.62-2.71-2.63-3.1q-13.89-2.7-27.73-5.7c-2.27-.49-3.28,0-4,2.17A63.52,63.52,0,0,1,823,635.43c-2.7,3.68-5.95,6.62-10.77,7.46l-24.95-4.43c-4.12-3.06-6.14-7.27-7.31-12a76.73,76.73,0,0,1-1.84-13.4c-.44-6.4.52-12.74.42-19.12l3.27-18.35c1.73-3.06,2-6.57,3.21-9.81,2.85-7.89,5.95-15.62,11.53-22.16,3.33-3.89,7.26-5.66,12.72-4.31,5.29,1.31,10.76,1.86,16.07,3.09,3.49.8,4.89.27,5.51-3.51,3.11-18.84,6.8-37.59,9.8-56.44,1-6.08,4.38-8.94,9.94-10.45a53,53,0,0,1,19.88-1.16c14.07,1.54,26.85,5.69,36.3,16.9,4.39,5.22,9.31,10,14,15,.59.63,1,1.78,2.63,1.34,1-12.75,6.42-24.86,6-38.06-.22-7.29,3.94-13.77,5.57-20.77C935.33,444.23,936.52,444.43,937,443.76Zm59,136.16c-12.28,11-21,59.38-13.75,75C993.73,646.1,1003.65,597.05,996.05,579.92ZM883.11,480.83c-10.6-3.38-21.17-4.8-31.79-1-2.15.76-3.35,1.8-3.77,4.19-4.36,25.06-8.78,50.12-13.41,75.14-.66,3.55,1,3.87,3.75,4.41,2.92.58,4.34.45,4.92-3,3.77-22.25,7.81-44.46,11.77-66.69,2.14-12,2.13-12.06,15-12.76C874.06,480.9,878.59,480.93,883.11,480.83Zm24.35,101.24c-9.51,12.48-14.3,47.3-10,55.31C907.79,627.65,913.88,594.55,907.46,582.07Zm91.83-4.69a30.8,30.8,0,0,1,4.05,16.59c-.21,23.24-3.06,45.8-18.12,65.13,2.17,1.24,4.18.27,6-1.4a27.93,27.93,0,0,0,6.23-9.18c7-15.47,10.11-31.8,10.48-48.69.13-6-.15-12-2.37-17.69C1004.57,579.65,1003.41,577.16,999.29,577.38ZM898.11,641.6c2.87,5,5.48,5.33,9,1.53a27.46,27.46,0,0,0,4.79-7.55c5.1-11.24,7.48-23.11,8.2-35.34a51.25,51.25,0,0,0-1.21-16.36c-.58-2.22-1.31-4.41-3.29-5.9s-3.53-.68-5.06.49c-2.14,1.65.43,2.07,1,2.87a15.68,15.68,0,0,1,2.82,7A73.68,73.68,0,0,1,906.08,635C904.4,638.1,902.09,640.7,898.11,641.6Zm2.13-81c-3.3-.22-5.17,1.24-6.87,3a35.46,35.46,0,0,0-6.84,10.51c-7.28,16-10.54,32.92-10.76,50.43-.08,6.47.32,12.92,2.65,19.11,1,2.67,2.18,5.33,6.1,6.31-4.08-4.77-5.2-10-5.72-15.36-1.7-17.44,1-34.33,6.57-50.79C888.29,575.15,891.53,566.53,900.24,560.65Zm6.52,1.34c-3.23-.58-5,1-6.59,2.6A33,33,0,0,0,893.23,575c-7.39,16.13-10.67,33.14-10.88,50.78-.07,6.59.32,13.17,2.82,19.44,1,2.51,2.15,5.08,5.86,5.75-4-4.56-5.11-9.72-5.62-15-1.81-19,1.36-37.41,8.06-55.18C896.17,573.68,899.28,566.66,906.76,562ZM799.7,635.07c-4.45-4.81-5.45-9.89-6-15-1.77-15.95.46-31.5,5-46.71,3.09-10.33,6.37-20.69,16.1-27.84-3-.28-4.77,1.16-6.41,2.75a33.78,33.78,0,0,0-6.78,10.13c-6.88,14.72-10.09,30.31-10.91,46.44-.4,7.77-.25,15.54,2.32,23.08C794,630.72,795.14,633.55,799.7,635.07Zm94.58-75.35c-3.31-.48-5.06,1.06-6.69,2.65a33.38,33.38,0,0,0-6.77,10.13c-7.54,16.33-10.84,33.58-11,51.47-.06,6.47.37,12.93,2.83,19.08,1,2.49,2.13,5.05,5.86,5.71-4-4.47-5.08-9.52-5.59-14.66-1.91-19.29,1.29-37.88,8.16-55.87C883.76,571.21,886.86,564.32,894.28,559.72ZM821.75,546.8c-2.69-.39-4.32.82-5.85,2.18a29.85,29.85,0,0,0-6.83,9.63c-7.7,15.86-10.89,32.75-11.51,50.2-.25,7,.07,14.1,2.61,20.87,1,2.66,2.14,5.35,6,6.33-4.21-5-5.25-10.51-5.74-16.1-1.46-16.54.95-32.64,6.08-48.31C809.58,562.35,812.81,553.11,821.75,546.8Zm-29.18,87c-4-4.61-5.13-9.26-5.73-14-1.87-14.93-.1-29.56,3.84-43.92,3.19-11.62,6.43-23.31,16.91-31.48-2.79-.42-4.45,1-6,2.52a30.57,30.57,0,0,0-6.35,9.11c-7.75,15.84-10.89,32.74-11.59,50.17-.27,6.69.08,13.39,2.18,19.87C786.8,629.06,787.9,632.17,792.57,633.78ZM952.7,614.17c-.35.74-.68,1.1-.6,1.34,1.31,4.27,3.95,8,6,11.9.24.48.67.5,1.23.46,4.44-.37,9.38-4.66,10.68-9.7-3.09,1.52-6,2.8-8.71,4.32-1.68.94-2.57.58-3.53-1C956.22,619.11,954.51,616.8,952.7,614.17Zm14.5,20.69c-2.22,1.09-4.15,1.71-5.66,2.84-3.34,2.52-5.57,1.55-7.59-1.67a38.18,38.18,0,0,0-3.49-4.19l-1.24.82c2.42,3.8,4.83,7.62,7.29,11.41.13.2.62.28.93.26C960.85,644.12,966.41,639,967.2,634.86Zm.38,14.93c-2.79,1.39-5.16,2.37-7.28,3.7s-3.24.78-4.55-1c-1.45-2-3.16-3.8-4.76-5.7l-1,.6c1.7,4.1,4.52,7.65,6.86,11.44.29.46.75.41,1.29.32C962.08,658.49,966.87,654,967.58,649.79Zm4.84-50c-2.84,1.16-5.57,2.14-8.16,3.39-1.76.84-2.6.4-3.41-1.21-1.1-2.19-2.41-4.28-3.89-6.86-.59,2.6-.59,2.6,1.3,8s1.89,5.34,7.25,3.25C968.62,605.12,972.29,604.51,972.42,599.8Zm-6.48-26.67c.71,3,1.49,7.08,4.43,7.65,3.47.67,7.48-.81,11.12-1.81,1.72-.47,1.56-2.69,2.73-4.74-2.2.62-3.73.9-5.13,1.47C974.14,577.72,969.38,579.16,965.94,573.13Zm9.62-11.9c-.06,3.68,2.57,8.45,4.22,8.53,6.4.34,12.14-2.31,12.46-5.88-1.83.43-3.65.74-5.39,1.28C982.18,566.6,977.7,567.69,975.56,561.23Zm2.32,25.3c-1.35.44-2.62.83-3.88,1.27-7.24,2.53-7.24,2.54-12.19-2.93-.11-.12-.4-.07-.61-.09.18,3,3.33,8.22,5.06,8.33C971.77,593.46,977.42,590.35,977.88,586.53Z" transform="translate(-752.74 -321.31)"/><ellipse class="cls-2" cx="1080.97" cy="644.33" rx="73.83" ry="76.53" transform="translate(-501.78 1268.93) rotate(-79.53)"/><path class="cls-3" d="M1098.81,577.68l1.91.35c.23.55,1.09.8.82,1.59-.88,2.54,0,5.2-.49,7.8-.39,1.94-1.16,3.76-1.56,5.65-1,4.8-1.68,9.67-2.38,14.53-.37,2.53-1.78,5.26-.83,7.54s3.39,3.93,5.1,5.91c.82,1,1.34,1.22,2-.12a4.71,4.71,0,0,1,4.34-2.66c.77,0,1.55-.07,2.32-.08s.89-.43,1.12-.89a.78.78,0,0,0-.39-1.12c-1.48-.89-1.5-2.28-1.29-3.68.14-1,.27-1.79-.81-2.43a1.55,1.55,0,0,1-.55-1.89c.28-.64,1-.27,1.55-.24a2.33,2.33,0,0,0,2.48-.9,3.45,3.45,0,0,1,4.49-1c2,.86,3.37,2.62,3.2,4.31a9.65,9.65,0,0,1-1.67,4.77c-2.55,3.51-2.38,4.15,1.62,6.11,1.2.59,2.75,1,3,2.5a89.93,89.93,0,0,1,1.25,9.92c.12,2.23-.79,2.82-3.07,2.93-.88,0-1.9-.32-3,.84l2.52.47c3.88.71,7.74,1.56,11.65,2.09a7.29,7.29,0,0,1,6.12,4.86,31.31,31.31,0,0,1,2.08,9.58c.35,3.64-.12,7.27,0,10.91L1138,677.56c-.26.7-.56,1.38-.77,2.08a52,52,0,0,1-5.61,12.88c-1.9,3-4.19,5.62-7.87,6.63l-16.43-3c-2.8-1.86-4-4.65-4.82-7.7a28.47,28.47,0,0,1-1-6.54c0-1.17-.51-1.61-1.66-1.81-2.29-.41-4.56-.93-6.82-1.5-1.13-.28-1.72-.11-2.17,1.06a30.39,30.39,0,0,1-3.8,7c-1.63,2.25-3.59,4.06-6.5,4.59l-14.13-2.61c-2.59-1.59-3.76-4.06-4.47-6.81a33,33,0,0,1-1-8.62,1.41,1.41,0,0,0-1.36-1.64q-7.23-1.46-14.43-3.08c-1.18-.26-1.71,0-2.12,1.14a33.56,33.56,0,0,1-4.56,8.89,8.78,8.78,0,0,1-5.65,3.91l-13-2.4a10.55,10.55,0,0,1-3.76-6.33,40.1,40.1,0,0,1-.89-7.07c-.2-3.38.32-6.72.3-10.08l1.79-9.67c.92-1.6,1.09-3.45,1.72-5.16,1.52-4.15,3.17-8.22,6.11-11.65a6.06,6.06,0,0,1,6.65-2.24c2.75.7,5.61,1,8.37,1.66,1.81.44,2.54.16,2.89-1.84,1.7-9.92,3.71-19.79,5.36-29.72.53-3.21,2.33-4.71,5.23-5.49a27.28,27.28,0,0,1,10.38-.56c7.32.84,14,3.06,18.84,9,2.27,2.77,4.81,5.31,7.26,7.94.3.33.49.94,1.36.71.61-6.72,3.46-13.09,3.32-20.05-.08-3.84,2.12-7.25,3-10.93C1097.94,577.92,1098.56,578,1098.81,577.68ZM1129,649.6c-6.45,5.76-11.23,31.24-7.5,39.48C1127.47,684.47,1132.87,658.64,1129,649.6Zm-58.44-52.51c-5.51-1.81-11-2.58-16.57-.61a2.59,2.59,0,0,0-2,2.2q-3.59,19.8-7.33,39.58c-.36,1.87.5,2,1.93,2.33s2.26.25,2.58-1.55c2.07-11.72,4.27-23.42,6.44-35.13,1.17-6.33,1.17-6.35,7.86-6.69C1065.82,597.1,1068.19,597.13,1070.54,597.09Zm12.24,53.43c-5,6.55-7.67,24.89-5.47,29.13C1082.75,674.54,1086.07,657.11,1082.78,650.52Zm47.91-2.26a16.55,16.55,0,0,1,2,8.76c-.21,12.25-1.8,24.14-9.74,34.29,1.12.66,2.17.15,3.12-.72a14.86,14.86,0,0,0,3.29-4.83,65.38,65.38,0,0,0,5.68-25.64,24,24,0,0,0-1.15-9.33C1133.43,649.47,1132.83,648.16,1130.69,648.26Zm-53.06,33.61c1.48,2.64,2.84,2.83,4.71.84a14.7,14.7,0,0,0,2.53-4,52.73,52.73,0,0,0,4.44-18.6,27.53,27.53,0,0,0-.56-8.63,5.2,5.2,0,0,0-1.69-3.12,2,2,0,0,0-2.64.25c-1.12.86.21,1.09.51,1.51a8.27,8.27,0,0,1,1.43,3.68,39.29,39.29,0,0,1-4.54,24.6A6.22,6.22,0,0,1,1077.63,681.87Zm1.48-42.66a4.22,4.22,0,0,0-3.59,1.54,18.85,18.85,0,0,0-3.62,5.52,66.15,66.15,0,0,0-5.83,26.56,27.19,27.19,0,0,0,1.29,10.08c.51,1.41,1.11,2.81,3.15,3.34a13.61,13.61,0,0,1-2.91-8.11,64.56,64.56,0,0,1,3.65-26.76C1072.81,646.82,1074.54,642.29,1079.11,639.21Zm3.39.72a3.61,3.61,0,0,0-3.44,1.35,17.63,17.63,0,0,0-3.67,5.49,66,66,0,0,0-5.9,26.74,26.7,26.7,0,0,0,1.38,10.26c.51,1.33,1.1,2.68,3,3-2.07-2.41-2.62-5.13-2.86-7.91a65.12,65.12,0,0,1,4.45-29.07C1076.93,646.07,1078.59,642.37,1082.5,639.93Zm-56.15,38.27c-2.3-2.55-2.8-5.23-3.07-7.94a62.18,62.18,0,0,1,2.83-24.61c1.65-5.43,3.41-10.89,8.52-14.63a4,4,0,0,0-3.36,1.43,18,18,0,0,0-3.58,5.32,65.59,65.59,0,0,0-5.9,24.46,32.33,32.33,0,0,0,1.11,12.17A5.06,5.06,0,0,0,1026.35,678.2ZM1076,638.7a3.76,3.76,0,0,0-3.5,1.39,17.34,17.34,0,0,0-3.57,5.32,66,66,0,0,0-6,27.1,26.16,26.16,0,0,0,1.39,10.07c.51,1.31,1.09,2.67,3,3a12.73,12.73,0,0,1-2.85-7.74,64.62,64.62,0,0,1,4.51-29.43C1070.47,644.73,1072.12,641.11,1076,638.7Zm-37.76-7a3.48,3.48,0,0,0-3.06,1.13,15.66,15.66,0,0,0-3.6,5.06c-4.09,8.34-5.83,17.24-6.23,26.44a28.21,28.21,0,0,0,1.26,11c.51,1.4,1.09,2.82,3.12,3.35-2.17-2.64-2.69-5.55-2.92-8.5a64.09,64.09,0,0,1,3.39-25.45C1031.83,639.89,1033.56,635,1038.25,631.72Zm-15.61,45.78a12.89,12.89,0,0,1-2.92-7.41,59.68,59.68,0,0,1,2.2-23.14c1.71-6.12,3.46-12.28,9-16.56a3.57,3.57,0,0,0-3.16,1.32,16.16,16.16,0,0,0-3.34,4.78c-4.12,8.33-5.83,17.24-6.28,26.43a30.14,30.14,0,0,0,1,10.47C1019.65,675,1020.21,676.64,1022.64,677.5Zm83.58-10c-.18.39-.35.57-.32.7.67,2.25,2,4.2,3.06,6.29.12.25.35.26.64.24a7.06,7.06,0,0,0,5.61-5.08c-1.61.79-3.12,1.46-4.56,2.25-.88.49-1.34.3-1.83-.51C1108,670.16,1107.16,668.93,1106.22,667.55Zm7.47,10.94a18.92,18.92,0,0,0-3,1.48c-1.76,1.32-2.92.81-4-.9a22.12,22.12,0,0,0-1.8-2.22l-.65.43c1.24,2,2.48,4,3.74,6a.68.68,0,0,0,.49.14C1110.34,683.36,1113.26,680.64,1113.69,678.49Zm.13,7.87c-1.46.73-2.7,1.23-3.81,1.93s-1.7.41-2.37-.54-1.63-2-2.46-3l-.5.32a44.62,44.62,0,0,0,3.52,6c.15.24.39.22.67.17A6.91,6.91,0,0,0,1113.82,686.36Zm2.75-26.34c-1.48.6-2.91,1.11-4.27,1.76-.92.45-1.36.21-1.77-.64-.56-1.16-1.24-2.26-2-3.63-.32,1.37-.32,1.37.65,4.2s1,2.82,3.76,1.74C1114.56,662.81,1116.48,662.5,1116.57,660ZM1113.31,646c.36,1.58.75,3.73,2.28,4,1.81.37,3.9-.4,5.81-.92.9-.24.82-1.41,1.44-2.49a26.82,26.82,0,0,0-2.68.76C1117.57,648.38,1115.08,649.13,1113.31,646Zm5.07-6.26c0,1.94,1.31,4.46,2.16,4.51,3.34.19,6.35-1.19,6.53-3.07-1,.22-1.91.38-2.82.66C1121.81,642.54,1119.47,643.11,1118.38,639.69Zm1.1,13.34c-.71.23-1.37.44-2,.67-3.79,1.31-3.79,1.32-6.35-1.58,0-.06-.2,0-.31,0,.08,1.61,1.7,4.34,2.6,4.41C1116.26,656.67,1119.22,655.05,1119.48,653Z" transform="translate(-752.74 -321.31)"/></svg>