<svg id="Layer_1" data-name="Layer 1" xmlns="http://www.w3.org/2000/svg" xmlns:xlink="http://www.w3.org/1999/xlink" viewBox="0 0 906.49 115.35"><defs><style>.cls-1{fill:url(#linear-gradient);}.cls-2{fill:#fefefe;}</style><linearGradient id="linear-gradient" x1="16.46" y1="101.35" x2="200.34" y2="101.35" gradientUnits="userSpaceOnUse"><stop offset="0.02" stop-color="#89ffff"/><stop offset="0.66" stop-color="#31acd2"/><stop offset="1" stop-color="#007db9"/></linearGradient></defs><path class="cls-1" d="M25,56.54l-8.57,2c.08-.35.38-.45.6-.63,1-.83,2.09-1.58,3-2.47a24.69,24.69,0,0,1,10.39-5.71A51.13,51.13,0,0,1,43,47.66c.91,0,1.82-.18,2.72-.3a3,3,0,0,1,2.52.31c.44.35,1-.07,1.48-.21A11.72,11.72,0,0,0,55,44.2a1.49,1.49,0,0,1,1.58-.46c.64.13,1.29.18,1.93.34,2.88.69,5.7-.06,8.55-.3a5.82,5.82,0,0,1,3,.32A101.77,101.77,0,0,0,89.2,49.94a4.39,4.39,0,0,1,1.35.54c2.44,1.38,5,2.6,7.49,3.81a15.29,15.29,0,0,0,5.36,1.35c4,.37,7.93.74,11.88,1.24,1.78.22,3.39,1.16,5.14,1.55A14,14,0,0,1,129,63.86a2.64,2.64,0,0,0,2,1c13.17,1.54,26.41,2.26,39.6,3.57,1.49.14,2.56,1.26,3.64,2.16,1.87,1.57,3.61,3.3,5.4,5a1.53,1.53,0,0,1,.46.62,2.37,2.37,0,0,0,1.56,1.49,2.66,2.66,0,0,1,1.58,1.82c1.44,4,2.94,8,4.43,12a4.28,4.28,0,0,1,.27,1.62c-.08,4.67-.37,9.34-.22,14,.08,2.93.29,5.86.42,8.8a1.06,1.06,0,0,0,.55.95c.9.59,1.77,1.22,2.68,1.8a1.2,1.2,0,0,1,.58,1.4,60.93,60.93,0,0,1-1.14,6.25,3.19,3.19,0,0,0,.57,3c1.81,2.63,2.22,5.7,2.61,8.72.8,6.22,3.17,11.94,5.38,17.72.3.79.59,1.59.93,2.5l-4.2.38c-1.43.13-2.86.26-4.29.36a10.11,10.11,0,0,1-2.77-.51c-1.15-.24-2.28-.57-3.44-.78-.68-.12-.66-.36-.4-.89,1-2,2-4,3-6.17-1.56,0-3,0-4.44,0-1.81,0-3.36-1-5-1.46-.54-.16-.07-.56,0-.79,1.18-2.4,2.37-4.79,3.59-7.17a1.84,1.84,0,0,0,.1-1.65c-1.2-3.27-2.36-6.56-3.51-9.86a4.58,4.58,0,0,0-.82-1.42q-7.65-9.24-15.5-18.32c-.47-.55-.82-.73-1.36-.15a3,3,0,0,1-1.09.63c-3.16,1.31-6.32,2.63-9.49,3.93-2.05.83-4.26.93-6.4,1.35-2.78.55-5.58,1-8.38,1.5a13.94,13.94,0,0,1-2.23.23c-4.77,0-9.54.22-14.3.07-3.32-.11-6.62-.66-9.92-1.06-2.08-.25-2.07-.29-2.47,1.8s-.8,4.09-1.23,6.13a13.53,13.53,0,0,1-1.24,2.87q-2.16,4.67-4.37,9.29a4.07,4.07,0,0,0-.29,3.1c.56,1.87,1,3.8,1.48,5.68.18.63.15,1-.59,1.06-.92.07-1,.53-.77,1.35.64,2.29,1.17,4.62,1.8,6.91.16.55,0,.77-.41,1.12a6.12,6.12,0,0,1-5.4,1.46,51.26,51.26,0,0,0-6-.41,1.94,1.94,0,0,1-1.76-1.1c-.9-1.43-.92-1.41.13-2.75,1.27-1.62,2.53-3.25,3.81-4.86.43-.53.47-.82-.35-.88s-1.81-.22-2.72-.32c-1.15-.12-1.16-.11-.51-1a51.78,51.78,0,0,0,3.72-5.75,4.26,4.26,0,0,0,.46-1.56c.4-3.89-.35-7.68-1-11.48a27.21,27.21,0,0,1-.3-9.52c.13-.68-.06-.83-.74-.77-2,.19-4.1.3-6.15.46a1,1,0,0,1-1-.3c-3.74-4.12-8.06-7.63-12-11.56a2.74,2.74,0,0,1-.66-1.06,23.91,23.91,0,0,0-5.74-9,97,97,0,0,1-7.75-8.7c-1.18-1.48-2.93-2.37-4.39-3.57a.58.58,0,0,0-.36-.12c-1.56.39-3.32.12-4.63,1.3-1.82,1.63-4.06,1.76-6.3,1.91-.49,0-1-.07-1.47,0a5.59,5.59,0,0,1-4.55-1.55,2.22,2.22,0,0,0-1.7-.58c-1.3,0-2.61,0-3.91,0-.46,0-.8-.11-.86-.7A8.05,8.05,0,0,0,27.62,79c-.42-.52-.27-.79.24-1,.09,0,.16-.13.25-.15,1.85-.4,2.75-1.82,3.61-3.31a26.76,26.76,0,0,1,3.1-4.14,1.91,1.91,0,0,0,.5-1.23c.14-2.31.36-4.62.48-6.93a2.23,2.23,0,0,1,.84-1.77,12.49,12.49,0,0,0,3.74-5.62c.17-.47.16-.63-.36-.8a5.15,5.15,0,0,0-3.2,0c-3.73,1-7.52,1.89-11.29,2.82a.3.3,0,0,1-.4-.17c.07,0,.19,0,.13-.13Z" transform="translate(-16.46 -43.68)"/><path class="cls-2" d="M25,56.54l.23,0c.06.14-.06.12-.13.13Z" transform="translate(-16.46 -43.68)"/><path d="M255.73,91.12a29.47,29.47,0,0,0-2.5-6.48c-1.25-2.1-2-2.65-6.31-2.65h-7.8v38c0,6.08.62,6.94,8,7.4v2.19H224.46v-2.19c7.25-.46,7.88-1.24,7.88-7.4V82h-7.1c-4.29,0-5.54.47-6.86,2.81a35,35,0,0,0-2.57,6.32h-2.34c.46-4.76.93-9.67,1.17-14h1.79c1.17,1.87,2,1.79,4.21,1.79h30.88c2.18,0,2.8-.31,4-1.79h1.87c0,3.67.32,9.28.71,13.8Z" transform="translate(-16.46 -43.68)"/><path d="M318.72,81.06c-6.47.62-7.09,1-7.09,7.56v31.27c0,6.55.7,6.78,7.09,7.48v2.19H297.83v-2.19c6.47-.78,7.09-.93,7.09-7.48v-15.6H278.26v15.6c0,6.47.62,6.7,7,7.48v2.19H264.46v-2.19c6.31-.7,7-.93,7-7.48V88.62c0-6.55-.7-6.94-7-7.56V78.87h20.81v2.19c-6.23.54-7,1.09-7,7.56V101h26.66V88.62c0-6.47-.85-7-7.09-7.56V78.87h20.89Z" transform="translate(-16.46 -43.68)"/><path d="M367.06,117.16c-.47,2-2.57,10.06-3.35,12.4h-37.9v-2.19c7.26-.54,7.8-1.24,7.8-7.64V88.93c0-6.94-.86-7.33-6.71-7.87V78.87h23.87c7.32,0,10.37-.07,11.3-.15.08,2,.39,7.8.7,11.93l-2.34.39a25.89,25.89,0,0,0-2.34-5.93c-1.24-2.57-3-3.12-7.72-3.12H343c-2.42,0-2.58.24-2.58,2.5v17.23h8.66c5.85,0,6.24-1.17,7.17-6.47h2.42v16.06h-2.42c-1-5.61-1.63-6.39-7.25-6.39h-8.58v15.51c0,5.46,1.72,5.93,5.62,6h7.25c4.76,0,5.54-.7,7.25-2.73a33.69,33.69,0,0,0,4.21-7.17Z" transform="translate(-16.46 -43.68)"/><path d="M424.75,91a24.17,24.17,0,0,0-2.41-5.77c-1.49-2.65-2.65-3.28-7-3.28H407c-2.27,0-2.5.24-2.5,2.5v18h9.67c5.61,0,6-.94,7.17-6.39h2.34V112.4h-2.42c-1-5.45-1.55-6.7-7.09-6.7h-9.67v14c0,6.78.78,7.09,7.88,7.71v2.19H390.68v-2.19c6.31-.46,7-1,7-7.71V88.78c0-6.79-.78-7.1-7-7.72V78.87H415.4c7,0,9.67-.07,11-.15.08,2.81.39,8.26.78,12Z" transform="translate(-16.46 -43.68)"/><path d="M457.19,129.56v-2.19c5.07-.62,5.69-1.4,4.6-4.36s-2.58-6.94-4.21-11.85H440.73c-1.24,3.5-2.41,6.55-3.5,9.74-1.72,5.07-.63,5.69,5.77,6.47v2.19H425v-2.19c4.92-.62,6.17-1.17,8.89-8.18L450,78.25l2.5-.47c4.91,13.34,10.29,28.07,15.2,41.56,2.5,6.79,3.2,7.41,8.74,8v2.19ZM449.39,88c-2.49,6.7-5.15,13.8-7.49,20h14.59Z" transform="translate(-16.46 -43.68)"/><path d="M525.8,130.18c-1,0-1.87-.08-2.89-.15-5.69-.39-8.73-1.88-12.16-6.71-2.89-4-5.69-8.89-8.19-12.87-1.56-2.49-2.57-3-6.55-3h-2.73v12.24c0,6.63.86,7,7.1,7.64v2.19H479.56v-2.19c6.47-.7,7-1,7-7.64V88.62c0-6.63-.86-6.86-7-7.56V78.87h19.88c5.7,0,9.52.71,12.48,2.66a11.62,11.62,0,0,1,5.3,10.29c0,6.7-4.29,10.91-10.06,13.41,1.41,2.42,4.76,7.64,7.1,11.15a71.66,71.66,0,0,0,6.16,8,11.25,11.25,0,0,0,5.69,3.59ZM497,104.84c4.05,0,6.62-.62,8.57-2.26,3-2.26,4.29-5.38,4.29-9.59,0-8.35-5.53-11.39-11.54-11.39-2.26,0-3.58.32-4.13.78-.7.55-.94,1.33-.94,3.36v19.1Z" transform="translate(-16.46 -43.68)"/><path d="M572.65,129.56v-2.19c6.4-.62,6.63-1.09,6.55-9.43l.08-31.81c-6.39,14.27-16.68,36.57-19.41,43.43h-2c-2.65-7.1-11.46-28.54-17.39-42.65-1.32,27.29-1.4,33.45-1.4,34.93.08,4.36,2,5,7.33,5.53v2.19H527.9v-2.19c4.52-.46,6.39-1.4,7-5.61.46-3.43.54-6.24,2.57-34.7.31-4-.47-5.38-7.33-6V78.87h13.57L561,118.41l18.48-39.54h13.64v2.19c-6.7.78-7.56,1.48-7.4,6.94l.31,29.94c.31,8.34.54,8.73,7.4,9.43v2.19Z" transform="translate(-16.46 -43.68)"/><path d="M600.4,129.56v-2.19c6.4-.7,7-1,7-7.64V88.78c0-6.71-.62-7-7-7.72V78.87h20.9v2.19c-6.47.7-7.09,1-7.09,7.72v31c0,6.71.62,6.94,7.09,7.64v2.19Z" transform="translate(-16.46 -43.68)"/><path d="M683.05,81.06c-5,.54-6.63,1.32-6.86,4.91-.08,2.5-.23,5.77-.23,13v31.27h-3L639.62,89.48V109c0,7,.24,10.53.39,12.79.16,4,2.11,5.15,7.72,5.61v2.19h-19v-2.19c4.84-.39,6.71-1.55,7-5.38.23-2.49.39-6,.39-13.1V89c0-2.18-.16-3.43-1.56-5.14-1.48-2-3.12-2.42-6.94-2.81V78.87h11.7l33.06,39.23V99c0-7.25-.16-10.6-.39-12.94-.24-3.51-2-4.6-8.27-5V78.87h19.26Z" transform="translate(-16.46 -43.68)"/><path d="M740,108.27c-4.84.62-5.15,1.09-5.15,5.69v6.55a42.75,42.75,0,0,0,.47,7.41c-4.84,1.09-11.15,2.81-17.7,2.81-17.7,0-28.46-11-28.46-26.67,0-16.45,13.41-26.28,29-26.28a79.64,79.64,0,0,1,16.22,2c.16,2.89.55,7.64,1.17,12.56l-2.34.46c-1.87-6.62-4.13-9.43-9-11.07a26.45,26.45,0,0,0-7.25-1c-11.93,0-19.65,8.19-19.65,22.45,0,12.4,6.39,24.72,21.52,24.72a15.6,15.6,0,0,0,6.63-1.32c1.63-.94,2.65-1.8,2.65-5v-6.4c0-5.69-.63-6.31-8.11-6.86V106h20Z" transform="translate(-16.46 -43.68)"/><path d="M786.2,78.87c11,0,17.93,2.19,22.76,6.79,3.82,3.74,6.63,9.2,6.63,16.68,0,9.13-3.74,16.53-9.75,21.06s-13.48,6.16-23.08,6.16H764.52v-2.19c6.71-.62,7-1.17,7-7.56V88.7c0-6.71-.94-7-7-7.64V78.87Zm-7.88,40.32c0,5.85,2.5,7.48,8.34,7.48,14,0,21.21-9.59,21.21-23.23,0-8.5-2.88-15-9-18.72-3.59-2.26-8.11-3.12-13.34-3.12-3.5,0-5.38.47-6.16,1.1-.7.46-1,1.32-1,4.36Z" transform="translate(-16.46 -43.68)"/><path d="M863.62,117.16c-.47,2-2.58,10.06-3.36,12.4H822.37v-2.19c7.25-.54,7.8-1.24,7.8-7.64V88.93c0-6.94-.86-7.33-6.71-7.87V78.87h23.86c7.33,0,10.37-.07,11.31-.15.07,2,.39,7.8.7,11.93L857,91a25.89,25.89,0,0,0-2.34-5.93c-1.25-2.57-3-3.12-7.72-3.12h-7.41c-2.41,0-2.57.24-2.57,2.5v17.23h8.65c5.85,0,6.24-1.17,7.18-6.47h2.42v16.06h-2.42c-1-5.61-1.64-6.39-7.25-6.39H837v15.51c0,5.46,1.72,5.93,5.61,6h7.26c4.75,0,5.53-.7,7.25-2.73a33.69,33.69,0,0,0,4.21-7.17Z" transform="translate(-16.46 -43.68)"/><path d="M923,81.06c-5,.54-6.63,1.32-6.86,4.91-.08,2.5-.24,5.77-.24,13v31.27h-3L879.52,89.48V109c0,7,.23,10.53.39,12.79.15,4,2.1,5.15,7.72,5.61v2.19h-19v-2.19c4.83-.39,6.71-1.55,7-5.38.23-2.49.39-6,.39-13.1V89c0-2.18-.16-3.43-1.56-5.14-1.48-2-3.12-2.42-6.94-2.81V78.87h11.7l33.05,39.23V99c0-7.25-.15-10.6-.38-12.94-.24-3.51-2-4.6-8.27-5V78.87H923Z" transform="translate(-16.46 -43.68)"/><path d="M255.73,91.12a29.47,29.47,0,0,0-2.5-6.48c-1.25-2.1-2-2.65-6.31-2.65h-7.8v38c0,6.08.62,6.94,8,7.4v2.19H224.46v-2.19c7.25-.46,7.88-1.24,7.88-7.4V82h-7.1c-4.29,0-5.54.47-6.86,2.81a35,35,0,0,0-2.57,6.32h-2.34c.46-4.76.93-9.67,1.17-14h1.79c1.17,1.87,2,1.79,4.21,1.79h30.88c2.18,0,2.8-.31,4-1.79h1.87c0,3.67.32,9.28.71,13.8Z" transform="translate(-16.46 -43.68)"/><path d="M318.72,81.06c-6.47.62-7.09,1-7.09,7.56v31.27c0,6.55.7,6.78,7.09,7.48v2.19H297.83v-2.19c6.47-.78,7.09-.93,7.09-7.48v-15.6H278.26v15.6c0,6.47.62,6.7,7,7.48v2.19H264.46v-2.19c6.31-.7,7-.93,7-7.48V88.62c0-6.55-.7-6.94-7-7.56V78.87h20.81v2.19c-6.23.54-7,1.09-7,7.56V101h26.66V88.62c0-6.47-.85-7-7.09-7.56V78.87h20.89Z" transform="translate(-16.46 -43.68)"/><path d="M367.06,117.16c-.47,2-2.57,10.06-3.35,12.4h-37.9v-2.19c7.26-.54,7.8-1.24,7.8-7.64V88.93c0-6.94-.86-7.33-6.71-7.87V78.87h23.87c7.32,0,10.37-.07,11.3-.15.08,2,.39,7.8.7,11.93l-2.34.39a25.89,25.89,0,0,0-2.34-5.93c-1.24-2.57-3-3.12-7.72-3.12H343c-2.42,0-2.58.24-2.58,2.5v17.23h8.66c5.85,0,6.24-1.17,7.17-6.47h2.42v16.06h-2.42c-1-5.61-1.63-6.39-7.25-6.39h-8.58v15.51c0,5.46,1.72,5.93,5.62,6h7.25c4.76,0,5.54-.7,7.25-2.73a33.69,33.69,0,0,0,4.21-7.17Z" transform="translate(-16.46 -43.68)"/><path d="M424.75,91a24.17,24.17,0,0,0-2.41-5.77c-1.49-2.65-2.65-3.28-7-3.28H407c-2.27,0-2.5.24-2.5,2.5v18h9.67c5.61,0,6-.94,7.17-6.39h2.34V112.4h-2.42c-1-5.45-1.55-6.7-7.09-6.7h-9.67v14c0,6.78.78,7.09,7.88,7.71v2.19H390.68v-2.19c6.31-.46,7-1,7-7.71V88.78c0-6.79-.78-7.1-7-7.72V78.87H415.4c7,0,9.67-.07,11-.15.08,2.81.39,8.26.78,12Z" transform="translate(-16.46 -43.68)"/><path d="M457.19,129.56v-2.19c5.07-.62,5.69-1.4,4.6-4.36s-2.58-6.94-4.21-11.85H440.73c-1.24,3.5-2.41,6.55-3.5,9.74-1.72,5.07-.63,5.69,5.77,6.47v2.19H425v-2.19c4.92-.62,6.17-1.17,8.89-8.18L450,78.25l2.5-.47c4.91,13.34,10.29,28.07,15.2,41.56,2.5,6.79,3.2,7.41,8.74,8v2.19ZM449.39,88c-2.49,6.7-5.15,13.8-7.49,20h14.59Z" transform="translate(-16.46 -43.68)"/><path d="M525.8,130.18c-1,0-1.87-.08-2.89-.15-5.69-.39-8.73-1.88-12.16-6.71-2.89-4-5.69-8.89-8.19-12.87-1.56-2.49-2.57-3-6.55-3h-2.73v12.24c0,6.63.86,7,7.1,7.64v2.19H479.56v-2.19c6.47-.7,7-1,7-7.64V88.62c0-6.63-.86-6.86-7-7.56V78.87h19.88c5.7,0,9.52.71,12.48,2.66a11.62,11.62,0,0,1,5.3,10.29c0,6.7-4.29,10.91-10.06,13.41,1.41,2.42,4.76,7.64,7.1,11.15a71.66,71.66,0,0,0,6.16,8,11.25,11.25,0,0,0,5.69,3.59ZM497,104.84c4.05,0,6.62-.62,8.57-2.26,3-2.26,4.29-5.38,4.29-9.59,0-8.35-5.53-11.39-11.54-11.39-2.26,0-3.58.32-4.13.78-.7.55-.94,1.33-.94,3.36v19.1Z" transform="translate(-16.46 -43.68)"/><path d="M572.65,129.56v-2.19c6.4-.62,6.63-1.09,6.55-9.43l.08-31.81c-6.39,14.27-16.68,36.57-19.41,43.43h-2c-2.65-7.1-11.46-28.54-17.39-42.65-1.32,27.29-1.4,33.45-1.4,34.93.08,4.36,2,5,7.33,5.53v2.19H527.9v-2.19c4.52-.46,6.39-1.4,7-5.61.46-3.43.54-6.24,2.57-34.7.31-4-.47-5.38-7.33-6V78.87h13.57L561,118.41l18.48-39.54h13.64v2.19c-6.7.78-7.56,1.48-7.4,6.94l.31,29.94c.31,8.34.54,8.73,7.4,9.43v2.19Z" transform="translate(-16.46 -43.68)"/><path d="M600.4,129.56v-2.19c6.4-.7,7-1,7-7.64V88.78c0-6.71-.62-7-7-7.72V78.87h20.9v2.19c-6.47.7-7.09,1-7.09,7.72v31c0,6.71.62,6.94,7.09,7.64v2.19Z" transform="translate(-16.46 -43.68)"/><path d="M683.05,81.06c-5,.54-6.63,1.32-6.86,4.91-.08,2.5-.23,5.77-.23,13v31.27h-3L639.62,89.48V109c0,7,.24,10.53.39,12.79.16,4,2.11,5.15,7.72,5.61v2.19h-19v-2.19c4.84-.39,6.71-1.55,7-5.38.23-2.49.39-6,.39-13.1V89c0-2.18-.16-3.43-1.56-5.14-1.48-2-3.12-2.42-6.94-2.81V78.87h11.7l33.06,39.23V99c0-7.25-.16-10.6-.39-12.94-.24-3.51-2-4.6-8.27-5V78.87h19.26Z" transform="translate(-16.46 -43.68)"/><path d="M740,108.27c-4.84.62-5.15,1.09-5.15,5.69v6.55a42.75,42.75,0,0,0,.47,7.41c-4.84,1.09-11.15,2.81-17.7,2.81-17.7,0-28.46-11-28.46-26.67,0-16.45,13.41-26.28,29-26.28a79.64,79.64,0,0,1,16.22,2c.16,2.89.55,7.64,1.17,12.56l-2.34.46c-1.87-6.62-4.13-9.43-9-11.07a26.45,26.45,0,0,0-7.25-1c-11.93,0-19.65,8.19-19.65,22.45,0,12.4,6.39,24.72,21.52,24.72a15.6,15.6,0,0,0,6.63-1.32c1.63-.94,2.65-1.8,2.65-5v-6.4c0-5.69-.63-6.31-8.11-6.86V106h20Z" transform="translate(-16.46 -43.68)"/><path d="M786.2,78.87c11,0,17.93,2.19,22.76,6.79,3.82,3.74,6.63,9.2,6.63,16.68,0,9.13-3.74,16.53-9.75,21.06s-13.48,6.16-23.08,6.16H764.52v-2.19c6.71-.62,7-1.17,7-7.56V88.7c0-6.71-.94-7-7-7.64V78.87Zm-7.88,40.32c0,5.85,2.5,7.48,8.34,7.48,14,0,21.21-9.59,21.21-23.23,0-8.5-2.88-15-9-18.72-3.59-2.26-8.11-3.12-13.34-3.12-3.5,0-5.38.47-6.16,1.1-.7.46-1,1.32-1,4.36Z" transform="translate(-16.46 -43.68)"/><path d="M863.62,117.16c-.47,2-2.58,10.06-3.36,12.4H822.37v-2.19c7.25-.54,7.8-1.24,7.8-7.64V88.93c0-6.94-.86-7.33-6.71-7.87V78.87h23.86c7.33,0,10.37-.07,11.31-.15.07,2,.39,7.8.7,11.93L857,91a25.89,25.89,0,0,0-2.34-5.93c-1.25-2.57-3-3.12-7.72-3.12h-7.41c-2.41,0-2.57.24-2.57,2.5v17.23h8.65c5.85,0,6.24-1.17,7.18-6.47h2.42v16.06h-2.42c-1-5.61-1.64-6.39-7.25-6.39H837v15.51c0,5.46,1.72,5.93,5.61,6h7.26c4.75,0,5.53-.7,7.25-2.73a33.69,33.69,0,0,0,4.21-7.17Z" transform="translate(-16.46 -43.68)"/><path d="M923,81.06c-5,.54-6.63,1.32-6.86,4.91-.08,2.5-.24,5.77-.24,13v31.27h-3L879.52,89.48V109c0,7,.23,10.53.39,12.79.15,4,2.1,5.15,7.72,5.61v2.19h-19v-2.19c4.83-.39,6.71-1.55,7-5.38.23-2.49.39-6,.39-13.1V89c0-2.18-.16-3.43-1.56-5.14-1.48-2-3.12-2.42-6.94-2.81V78.87h11.7l33.05,39.23V99c0-7.25-.15-10.6-.38-12.94-.24-3.51-2-4.6-8.27-5V78.87H923Z" transform="translate(-16.46 -43.68)"/></svg>