<svg id="Layer_1" data-name="Layer 1" xmlns="http://www.w3.org/2000/svg" viewBox="0 0 1535.06 326"><path d="M1728,698.78c-3.72.07-7.43.21-11.14.21H204.09c-3.72,0-7.43-.14-11.15-.21V656.84c9.23-2.92,20.08,4.95,28.08-8.05,11.37-18.47,23.22-21.07,43.2-12.4,1-27.19-.14-54-4.73-80.51-2.09-12.12-12-18.1-22.85-14.6-18.4,5.92-31.49,1.17-43.7-15.85V477.9c9.92-8.23,14.94-21.86,25.51-29.38,2.87-2,2.43-5.6,2.88-8.78,4.06-28.38,21.83-43.28,46.63-38.2,6.43,1.32,12,.49,18-1.47,22.31-7.22,45.75.74,56.87,18.93,2.09,3.43,5,7.35,5,11.07.14,14.12,7.42,21.33,16.85,29.06,11.61,9.53,11.92,27.74,1.77,39.48-4.76,5.52-6.27,8.57-2.28,16,5.66,10.53,1.32,19.94-7.32,26.21-14.53,10.54-30.41,10.67-46.56,6.08-4.15-1.18-6.79-2.64-9.91,3.35-15.2,29.25-23,60.35-21.06,94.35.3,5.22-1.07,13.81,6.37,11.37,5.52-1.81,16.53,10.13,16.9-7.11.05-2.55,2.18-3.43,4.17-4.37,4.31-2.05,4.25-2.21,3.36-10,4.85,7.65,9.73,12.32,17.61,11,2.69-.45,10.27-2.81,4.73,6.45-2,3.39,1.14,5.13,3.8,4.48,4.7-1.15,13.28,4.23,13.54-3.73.47-14.58,6.35-27.76,6.13-42.4-.28-19,6.94-25.31,23.58-20.78,17.85,4.85,32.32-1.1,44.17-15.67,3.5-4.31,6.58,0,10-1.66,2.56-1.25,1.44,4.2,1.63,6.52.46,5.5.19,11.07.36,16.61.06,2.2-.8,3.59-2.47,4.22-11.6,4.36-17.84,13.33-19.19,27.83-.17,1.85-.17,3.72-.22,5.58-.65,23.56-.57,23.65,19.81,23.63h13.64c14.56,0,23.13-14.84,16.94-30.21-3.28-8.17-7.49-16.4-17.92-7.55,3.57-18.45,5.7-19.6,18.39-11.65,5.88,3.69,11.83,5.49,18.91,4.61,13.36-1.67,13.09,1,13.45,16.61.17,7.74,2.57,16.69,3.9,25.11.56,3.58,3.75,3,6.12,3,6.61.1,13.22,0,19.83,0,4.08,0,7.61.25,5.58-6.73-2.32-7.95,12.67-4,7-14.26,5,.57,4.8,6,8.34,7.58.59-1,1.66-2,1.69-3.05.62-17.23,1.57-34.46,1.47-51.68-.07-10.41,3.78-13.53,12.48-13.57,25.6-.12,51.2-1.21,76.8-1.28,8.8,0,14.72-2.6,18.22-12.52,4.21-12,9.66-23.4,12.53-36.18-4.79,11.31-9.75,22.54-14.31,34-3.16,7.94-7.34,11.8-15.93,11.77-27.24-.09-54.48,1.2-81.73,1.78-3.53.08-7.32,1.12-11.17-1.86C557.1,544.53,571,522.64,590.2,505c3.78-3.48,8.43-3.7,12.85-4.42q52.74-8.5,105.53-16.68c2.43-.38,5-.94,7.36-.43,11.07,2.39,10.16-3.15,6.36-11.36-1.85-4-4.68-8-3.34-13.05,1.14-4.28,1-11,5.94-10.88,7.42.11-.88,8,2.94,10.64,2.91.72,3.09-2.43,4.39-3.87,2.64-2.93,6.14-4.63,8.9-2.26,3.61,3.1.91,7.89-.58,10.93-8.2,16.71-8.37,16.6,4.81,26.9,5.1,4,9.86,8.7,15.34,11.82,23.56,13.39,36.94,34.92,44.25,63.25,3.09,12,.41,22.8.52,34.08.09,9,2,12.65,10.42,11.9,11.35-1,18.37,5.64,22.05,17.73,2.71,8.91,8.24,16.15,13.57,23.16,6.35,8.37,29.69,1.85,32.53-8.7,1.21-4.45-1.42-6-4.71-5.9-8.13.21-8-5.88-7.8-12.31.38-10.11,6.27-22.22,1.05-29.63-4.82-6.82-16.75-5.06-24.3-11a33.34,33.34,0,0,0-4.34-2.28c4.32-1.57,7.8-4.23,10.89-3.75,28.46,4.42,25.45-23.52,32.8-40.52,1-2.4.39-5.43,3.79-5.32,3.89.13,3.62,3,2.55,5.75-4.42,11.27,3.46,22.16.54,33.73-1.16,4.62,4.29,5.94,8.17,6,7.91.07,1.91-7.23,3.63-9.78,13-3.88,7.4,17.65,21.48,14.71-8.5,6.3-14.14,10.62-21.79,10.48-5.06-.09-7.19,3.17-6.34,9.19,1,6.89,1.44,13.88,1.88,20.84.47,7.38,2.09,15.87-8.93,14.3-2.57-.37-3.81,1.52-3.86,4.15,0,2.18-.85,6,1.5,6,7.27,0,11.36,8.23,18.58,8.17,19-.17,38,0,57-.1,3.06,0,7.75,1.23,7.79-4.07.05-6.75,2-14.3-1.62-20.13-1.62-2.58-1.68,4.72-6.51,3.64,7.12-16.16,2.47-33.46,4.93-50.17,1.63-11.1,7.85-17,17.55-13.76,22,7.25,44.26.45,66.29,3.13,4.67.57,6-3.9,9.51-5.12,9.3-3.25,17.61.13,27.17,3.39-4.84,5.53-10.63,10.55-5.53,19.39,2.25,3.9-.73,6.32-4.07,6-7.54-.76-12.44,4.68-14.46,10.77C1063.3,620.46,1053,626.13,1051,638c-1.31,7.89-1.84,16.27,6.51,18,8.61,1.84,16.92-1,20.23-12.24,4.43.92,3.73,9.46,6.79,8.62,12.6-3.42,23.44,8.92,36,4.1,5.21-2,3.8-6.44,4-10.27,1.74-29.13,7.71-34.47,32.63-24.52,9.36,3.74,22.61,7.73,19.46,25.69-.72,4.16.35,8.56,5.49,9,3.83.34,7.39.13,10-3.83s2.58-7.91-.8-11.06c-2.24-2.09-4.07-5.17-1.29-6.52,11.57-5.58,11.9-23.22,24.74-27.65,14-4.84,28.22-6.55,42.73-6.87,9.35-.21,17.43,4.84,23.45,11.08,5.28,5.47-1.17,14-2.08,21.16-.3,2.39-3.08,4.26-4.3,6.65-4.59,9-.74,17,8.29,17.1,7.43.13,15.13-1.32,22.25.39,9.11,2.19,9.79-13.8,18.88-9.56q-1.17-4.54-2.33-9.1c7.55,13.19,18.2,13.12,29.59,8.46,2.21,3.37-5,8.08.64,9.25s12.7,3.39,17.37-3.22c5.2-7.37,11.83-12.57,19.78-17.92l-9.88-7.64c8.32-14.58,26.79-11.83,34-27.52a3.39,3.39,0,0,1,5.46-1c1.69,1.76,3.46,4.54,3.53,7,.18,5.72-3.17,1.56-4.94,1.58-4,.05-4.77,3.58-5.21,6.58-1.39,9.46-5.46,16.39-14.43,20.68,16.85,1.08,22.09,27.64,42,21.25L1428,631.54l2.66-2.73c3,13.74,20.89,8.29,21.46,25.38.11,3.32,3,2.23,4.83,2.26q9.91.13,19.83,0c3.31,0,7.66.54,3.85-5.73-.66-1.09-.43-3.55.16-3.08,4.92,3.9,9.54-5.08,16.35,2.67-3-8.49-1.28-14.35-1.15-19.15.63-22.44,1.83-45.78-11.37-65.7-3.27-4.93-5.21-3.47-9-1.58-15,7.48-23.81,4.16-31.29-12.59-2.48-5.55-6.11-6.82-10.39-8.42-19.23-7.18-22.48-14.35-15.91-35.57,1-3.09,1-5.13-1.4-7.18-2.64-2.21-4.92-5-7.64-7.06-13.6-10.26-20.82-23.83-17.27-42.7a39.54,39.54,0,0,1,33.93-31.86c8.55-1.11,12.21-5.44,16-13.77,11-24.33,30.32-33,53.67-31.59,21.45,1.31,38.45,11.49,47.1,34.41,3.2,8.48,7.2,11.61,15,13.2,37.43,7.66,49.64,47.16,24.81,79.19-1.92,2.48-3.62,4.38-3.6,8.24.13,22.37-9.48,32.71-29.26,31.37-4.86-.33-9.62-3.17-14.47-3.32-9.28-.28-16.46,3.74-18.63,15.19C1511,579,1511.37,607,1511.74,635c.17,12.22,6.23,14.86,18.06,9.09,3,4.93-6.49,7.43-2.32,11.14,2.39,2.12,7,1.11,10.68,1.3,3.3.16,6.62-.16,9.91.09,6.31.47,10.94-.49,8.25-9.73a9.28,9.28,0,0,1-.12-5.51c6.62-15.79,6.28-32.47,5.36-49.27-.21-3.88,1.42-6.4,5.12-5.94,9.67,1.22,10.81-5.19,10.22-13.74-.35-5.1-.12-10.25,0-15.37.07-3.11-.57-7.43,3.72-7.12,4,.29,3.29,4.49,3.4,7.67,0,.46,0,.93,0,1.39,1.15,27.22,1.15,27.22,25.18,23.45,24.87-3.91,24.25-4,27.53-33.69.68-6.09-7.41-13.54.73-17.34,5-2.31,11.41-.67,17.2-.58,10.3.15,23.25-3.73,30.19,1.84,7.66,6.14,2.67,21.68,2.72,33,0,10.58,8.22,13.1,12.18,19.65,1.68,2.76,14.19,6.38,1.09,11.71-1.74.72-.26,3.1.18,4.82,6.9,26.93,6.88,26.94-2.79,55H1728ZM479.09,653c3.43,4,5.87,3.5,8.37-1.49,3.6-7.22,4-13.87-.52-20.75-2.07-3.19-4.45-3.68-7.53-2.63-3.49,1.19-4.26,3.87-3.54,7.56,1.15,5.9,2.23,11.81,3.29,17.59l-9.56-17.93c-2.37,7.61-7.44,14.07-2.29,20C470.09,658.61,475.67,657.35,479.09,653ZM711.58,523.54c-3,4.42-2.18,9.61-2.21,14.6-.13,18.67,2,20.37,18.29,14.38-4.54-10.31-12.58-18.1-16.06-29,8,1.94,8.14,13.18,15.11,16.69C730,519.63,727.71,517.19,711.58,523.54Zm-.27,110.78c8,3.18,8.85,14.77,18.05,19.49,0-12.2,0-23.07,0-33.94,0-3-1.35-5.74-4.25-5.62-7.21.28-16-3.89-21.07,2-2.91,3.37,4.83,9.29,6.89,14.6a23.8,23.8,0,0,1,.83,3.91c-6.63-1.29-6.54-11.34-13.06-13-3.13,39-3.95,37.54,22.68,32.41C719.52,646.61,711.71,642.83,711.31,634.32ZM385.57,656.84c4.12-2.64,12.17,3.78,14.49-3.75,2.72-8.88,4.17-19.47,2.5-28.46-1.32-7.18-10.11-1.87-15.28-3.72a54.39,54.39,0,0,1-7.93-3.43c-2.24-1.23-4.82-3.33-6.41-.12-4.86,9.8-8.71,20.21-6,31.68C369.62,660.09,378.25,655.35,385.57,656.84Zm626.52-.37c5.36,0,10.73,0,16.1,0,8.09,0,7.52-7.24,5.92-11.75-2-5.55,3.19-16-8.19-16.21s-21.24,3.14-31,9.36c-2.79,1.78-8.75-2.52-7.56,6,.84,6,.94,12.59,8.6,12.64C1001.35,656.53,1006.72,656.5,1012.09,656.47Zm646-98.31h.08v-5.55c0-5.64.52-11.11-7.15-11.33-7-.2-8.21,4.25-8.67,10.3-.39,5.07-.75,10.15-1.35,15.19s-1,9.76,5.52,8.91c4.85-.63,11.56,2,11.57-7.8ZM291.26,532.27c-6,7.46-11.13,12.61-18.1,14.39-3.27.83-6.74,1.89-5.61,7.08,1.34,6.21,1.65,12.9,5.22,18.18,1.13,1.66,3,0,4.16-1.22C285.83,561,292.88,550.28,291.26,532.27Zm441.84,119,2.81,1.4c4.48-7.42,9.26-14.65,13.34-22.35,2.55-4.81,9.43-9.54,6.08-14.84-2.69-4.25-10-1.06-15.22-1.47s-7.15,2.7-7.05,8.36C733.23,632,733.1,641.64,733.1,651.27Zm753.62-121c-2.57,13.5,2.38,22.25,8.33,30.5,2,2.73,4.28,7.86,7.27,6.14,5.61-3.24,4-11.26,6.18-17,1.47-3.87-.21-6.24-3.66-6.91C1497.8,541.63,1492.32,537.09,1486.72,530.22ZM760.25,621c-7.84,11-14.64,21.74-20.18,34,22,3.7,22.15,3.69,21.69-19.83C761.67,630.92,763.21,626.27,760.25,621Zm873.51,35.52c-7-18-7.48-17.78-21.46-17.51-7.56.15-7.11,5.12-8,10.71-1.23,8.07,3.74,6.63,7.53,6.74C1618.76,656.67,1625.66,656.52,1633.76,656.52ZM749.43,527.45l-3-.71c-4.2,7.26-8.45,14.49-12.58,21.8-1.4,2.48-2.25,4.93,1.26,6.57,6.95,3.27,14.07-1.45,14.32-9.85C749.57,539.33,749.43,533.39,749.43,527.45Zm495.08,116.92c-3.9,3.48-14-4.22-13.46,7.31.43,9.06,9,3.86,13.87,4.66,5.36.88,12.29-.18,11.9-7.83C1256.34,639.31,1249.3,645.75,1244.51,644.37Zm-100.4,12c4.08.18,8.53,1.15,8.48-6.28,0-7.25-3.28-9.78-9.32-9.75-5,0-7.68,1.78-7.77,8C1135.39,655.42,1138.57,657.28,1144.11,656.38ZM731.39,542.72c6-8.25,10.88-12.87,10.46-20.74,0-.49-5.05-1.9-6.62-.81C728.55,525.8,732.71,532.93,731.39,542.72Z" transform="translate(-192.94 -373)"/><path d="M1162.45,436.91c8.19,1.08,14.34,6.42,19.44,13,4.31,5.52,6.75,5.63,11.48.07,10.06-11.82,14.69-13.91,28.23-16.11-12.69,7.23-23.06,14.54-30.68,25.7-3.08,4.51-5.24,2.87-7.63-.69C1177.48,450.23,1169.76,444,1162.45,436.91Z" transform="translate(-192.94 -373)"/><path d="M471,433.93c11.58,1.93,19.15,25.63,30.46.82C491.2,452.91,491.2,452.91,471,433.93Z" transform="translate(-192.94 -373)"/><path d="M849.93,545.6c2.16,5.61,12.24,2.68,10.17,12.1-.39,1.8-3.53,4.65-4.07,4.31C850.71,558.68,848.59,553.22,849.93,545.6Z" transform="translate(-192.94 -373)"/></svg>